<svg width="206" height="74" viewBox="0 0 206 74" fill="none" xmlns="http://www.w3.org/2000/svg">
<path d="M114.674 29.8477C114.674 31.8984 114.4 33.8516 113.854 35.707C113.307 37.543 112.535 39.2422 111.539 40.8047C110.562 42.3672 109.391 43.7832 108.023 45.0527C106.656 46.3027 105.143 47.3672 103.482 48.2461C101.842 49.125 100.074 49.8086 98.1797 50.2969C96.3047 50.7656 94.3711 51 92.3789 51H73.7754V8.8125H92.3789C94.3711 8.8125 96.3047 9.04688 98.1797 9.51562C100.055 9.98438 101.812 10.6582 103.453 11.5371C105.113 12.3965 106.627 13.4512 107.994 14.7012C109.381 15.9512 110.562 17.3574 111.539 18.9199C112.535 20.4629 113.307 22.1621 113.854 24.0176C114.4 25.8535 114.674 27.7969 114.674 29.8477ZM102.867 29.8477C102.867 27.5625 102.584 25.3945 102.018 23.3438C101.471 21.2734 100.611 19.457 99.4395 17.8945C98.2676 16.332 96.7734 15.0918 94.957 14.1738C93.1602 13.2559 91.002 12.7969 88.4824 12.7969H85.4062V46.8984H88.4824C90.9629 46.8984 93.1016 46.4395 94.8984 45.5215C96.7148 44.584 98.209 43.334 99.3809 41.7715C100.572 40.1895 101.451 38.373 102.018 36.3223C102.584 34.2715 102.867 32.1133 102.867 29.8477ZM129.029 34.9453C130.24 35.2188 131.451 35.4336 132.662 35.5898C133.873 35.7461 135.094 35.8242 136.324 35.8242C137.613 35.8242 138.805 35.707 139.898 35.4727C141.012 35.2188 141.969 34.8086 142.77 34.2422C143.59 33.6562 144.234 32.8848 144.703 31.9277C145.172 30.9707 145.406 29.7793 145.406 28.3535C145.406 27.2012 145.25 26.1465 144.938 25.1895C144.625 24.2324 144.156 23.4121 143.531 22.7285C142.926 22.0449 142.174 21.5176 141.275 21.1465C140.377 20.7559 139.332 20.5605 138.141 20.5605C137.027 20.5605 136.021 20.7656 135.123 21.1758C134.244 21.5859 133.463 22.1426 132.779 22.8457C132.115 23.5293 131.539 24.3301 131.051 25.248C130.582 26.166 130.191 27.123 129.879 28.1191C129.566 29.1152 129.342 30.1211 129.205 31.1367C129.068 32.1523 129 33.1094 129 34.0078C129 34.1641 129 34.3203 129 34.4766C129 34.6328 129.01 34.7891 129.029 34.9453ZM153.434 28.2656C153.434 29.6523 153.209 30.8926 152.76 31.9863C152.311 33.0605 151.695 34.0078 150.914 34.8281C150.152 35.6484 149.264 36.3418 148.248 36.9082C147.232 37.4746 146.148 37.9434 144.996 38.3145C143.844 38.666 142.652 38.9199 141.422 39.0762C140.211 39.2324 139.029 39.3105 137.877 39.3105C136.412 39.3105 134.967 39.2129 133.541 39.0176C132.115 38.8027 130.709 38.4707 129.322 38.0215C129.537 39.3105 129.879 40.541 130.348 41.7129C130.816 42.8652 131.441 43.8809 132.223 44.7598C133.004 45.6191 133.961 46.3027 135.094 46.8105C136.246 47.3184 137.604 47.5723 139.166 47.5723C140.201 47.5723 141.188 47.416 142.125 47.1035C143.062 46.791 143.922 46.3516 144.703 45.7852C145.484 45.2188 146.168 44.5449 146.754 43.7637C147.359 42.9824 147.848 42.1133 148.219 41.1562L152.496 42.7383C151.852 44.2812 150.963 45.6191 149.83 46.752C148.717 47.8652 147.447 48.793 146.021 49.5352C144.615 50.2578 143.111 50.7949 141.51 51.1465C139.928 51.498 138.355 51.6738 136.793 51.6738C134.215 51.6738 131.832 51.2441 129.645 50.3848C127.457 49.5059 125.572 48.2852 123.99 46.7227C122.408 45.1602 121.168 43.2949 120.27 41.127C119.371 38.959 118.922 36.5859 118.922 34.0078C118.922 31.4297 119.371 29.0566 120.27 26.8887C121.168 24.7207 122.408 22.8555 123.99 21.293C125.572 19.7305 127.457 18.5195 129.645 17.6602C131.832 16.7812 134.215 16.3418 136.793 16.3418C138.043 16.3418 139.322 16.4297 140.631 16.6055C141.939 16.7812 143.209 17.0645 144.439 17.4551C145.67 17.8262 146.832 18.3145 147.926 18.9199C149.02 19.5254 149.967 20.2773 150.768 21.1758C151.588 22.0547 152.232 23.0801 152.701 24.252C153.189 25.4238 153.434 26.7617 153.434 28.2656ZM194.215 31.6055C194.215 33.8906 193.932 36.2734 193.365 38.7539C192.818 41.2344 192.047 43.666 191.051 46.0488C190.055 48.4316 188.863 50.668 187.477 52.7578C186.09 54.8672 184.566 56.6836 182.906 58.207L179.186 56.1855C179.713 55.209 180.211 54.1152 180.68 52.9043C181.148 51.6934 181.568 50.4141 181.939 49.0664C182.33 47.6992 182.672 46.293 182.965 44.8477C183.277 43.4023 183.531 41.9766 183.727 40.5703C183.941 39.1445 184.098 37.7676 184.195 36.4395C184.312 35.0918 184.371 33.8418 184.371 32.6895C184.371 31.9277 184.342 31.1172 184.283 30.2578C184.225 29.3789 184.098 28.5098 183.902 27.6504C183.727 26.7715 183.482 25.9316 183.17 25.1309C182.857 24.3301 182.438 23.627 181.91 23.0215C181.402 22.416 180.777 21.9277 180.035 21.5566C179.312 21.1855 178.453 21 177.457 21C176.48 21 175.611 21.2246 174.85 21.6738C174.088 22.1035 173.414 22.6797 172.828 23.4023C172.242 24.1055 171.734 24.916 171.305 25.834C170.895 26.752 170.553 27.6992 170.279 28.6758C170.025 29.6328 169.84 30.5801 169.723 31.5176C169.605 32.4551 169.547 33.2949 169.547 34.0371V51H159.615V17.1621H163.424L167.965 25.043C168.512 23.7344 169.195 22.543 170.016 21.4688C170.836 20.3945 171.764 19.4766 172.799 18.7148C173.834 17.9531 174.977 17.3672 176.227 16.957C177.496 16.5469 178.863 16.3418 180.328 16.3418C182.672 16.3418 184.713 16.7227 186.451 17.4844C188.189 18.2461 189.635 19.3105 190.787 20.6777C191.939 22.0254 192.799 23.6367 193.365 25.5117C193.932 27.3672 194.215 29.3984 194.215 31.6055Z" fill="white"/>
<path d="M79.0957 70.3924H75.2188V58.1268H71.3906V56.3299H82.9238V58.1268H79.0957V70.3924ZM86.2637 65.0408C86.6673 65.132 87.071 65.2036 87.4746 65.2557C87.8783 65.3078 88.2852 65.3338 88.6953 65.3338C89.125 65.3338 89.5221 65.2947 89.8867 65.2166C90.2578 65.132 90.5768 64.9953 90.8438 64.8065C91.1172 64.6111 91.332 64.354 91.4883 64.035C91.6445 63.716 91.7227 63.3188 91.7227 62.8436C91.7227 62.4595 91.6706 62.1079 91.5664 61.7889C91.4622 61.4699 91.306 61.1964 91.0977 60.9686C90.8958 60.7407 90.6452 60.5649 90.3457 60.4412C90.0462 60.311 89.6979 60.2459 89.3008 60.2459C88.9297 60.2459 88.5944 60.3143 88.2949 60.451C88.002 60.5877 87.7415 60.7733 87.5137 61.0076C87.2923 61.2355 87.1003 61.5024 86.9375 61.8084C86.7812 62.1144 86.651 62.4334 86.5469 62.7654C86.4427 63.0975 86.3678 63.4328 86.3223 63.7713C86.2767 64.1098 86.2539 64.4289 86.2539 64.7283C86.2539 64.7804 86.2539 64.8325 86.2539 64.8846C86.2539 64.9367 86.2572 64.9887 86.2637 65.0408ZM94.3984 62.8143C94.3984 63.2765 94.3236 63.6899 94.1738 64.0545C94.0241 64.4126 93.819 64.7283 93.5586 65.0018C93.3047 65.2752 93.0085 65.5063 92.6699 65.6951C92.3314 65.8839 91.9701 66.0402 91.5859 66.1639C91.2018 66.2811 90.8047 66.3657 90.3945 66.4178C89.9909 66.4699 89.597 66.4959 89.2129 66.4959C88.7246 66.4959 88.2428 66.4634 87.7676 66.3983C87.2923 66.3266 86.8236 66.216 86.3613 66.0662C86.4329 66.4959 86.5469 66.9061 86.7031 67.2967C86.8594 67.6808 87.0677 68.0193 87.3281 68.3123C87.5885 68.5988 87.9076 68.8266 88.2852 68.9959C88.6693 69.1652 89.1217 69.2498 89.6426 69.2498C89.9876 69.2498 90.3164 69.1977 90.6289 69.0936C90.9414 68.9894 91.2279 68.8429 91.4883 68.6541C91.7487 68.4653 91.9766 68.2407 92.1719 67.9803C92.3737 67.7199 92.5365 67.4302 92.6602 67.1111L94.0859 67.6385C93.8711 68.1528 93.5749 68.5988 93.1973 68.9764C92.8262 69.3475 92.403 69.6567 91.9277 69.9041C91.459 70.145 90.9577 70.324 90.4238 70.4412C89.8965 70.5584 89.3724 70.617 88.8516 70.617C87.9922 70.617 87.1979 70.4738 86.4688 70.1873C85.7396 69.8943 85.1113 69.4874 84.584 68.9666C84.0566 68.4458 83.6432 67.824 83.3438 67.1014C83.0443 66.3787 82.8945 65.5877 82.8945 64.7283C82.8945 63.869 83.0443 63.0779 83.3438 62.3553C83.6432 61.6326 84.0566 61.0109 84.584 60.4901C85.1113 59.9692 85.7396 59.5656 86.4688 59.2791C87.1979 58.9861 87.9922 58.8397 88.8516 58.8397C89.2682 58.8397 89.6947 58.869 90.1309 58.9276C90.5671 58.9861 90.9902 59.0805 91.4004 59.2108C91.8105 59.3345 92.1979 59.4972 92.5625 59.699C92.9271 59.9009 93.2428 60.1515 93.5098 60.451C93.7832 60.744 93.998 61.0858 94.1543 61.4764C94.3171 61.867 94.3984 62.313 94.3984 62.8143ZM106.869 61.9061L105.443 62.4725C105.215 61.7563 104.835 61.2062 104.301 60.8221C103.767 60.438 103.126 60.2459 102.377 60.2459C101.973 60.2459 101.612 60.311 101.293 60.4412C100.98 60.5649 100.704 60.7374 100.463 60.9588C100.229 61.1802 100.027 61.4373 99.8574 61.7303C99.6947 62.0233 99.5612 62.3358 99.457 62.6678C99.3529 62.9998 99.278 63.3449 99.2324 63.7029C99.1868 64.0545 99.1641 64.3963 99.1641 64.7283C99.1641 65.0864 99.1836 65.4477 99.2227 65.8123C99.2617 66.1769 99.3268 66.5285 99.418 66.867C99.5156 67.199 99.6426 67.5115 99.7988 67.8045C99.9551 68.091 100.15 68.3416 100.385 68.5565C100.626 68.7713 100.909 68.9406 101.234 69.0643C101.566 69.188 101.947 69.2498 102.377 69.2498C102.722 69.2498 103.051 69.1977 103.363 69.0936C103.676 68.9894 103.962 68.8429 104.223 68.6541C104.483 68.4653 104.714 68.2407 104.916 67.9803C105.118 67.7199 105.277 67.4302 105.395 67.1111L106.83 67.6385C106.615 68.1528 106.329 68.5988 105.971 68.9764C105.619 69.3475 105.219 69.6567 104.77 69.9041C104.32 70.145 103.839 70.324 103.324 70.4412C102.81 70.5584 102.289 70.617 101.762 70.617C100.909 70.617 100.118 70.4738 99.3887 70.1873C98.6595 69.8943 98.028 69.4874 97.4941 68.9666C96.9668 68.4393 96.5534 67.8175 96.2539 67.1014C95.9544 66.3787 95.8047 65.5877 95.8047 64.7283C95.8047 63.8624 95.9512 63.0682 96.2441 62.3455C96.5436 61.6229 96.957 61.0011 97.4844 60.4803C98.0117 59.9595 98.64 59.5558 99.3691 59.2693C100.098 58.9829 100.896 58.8397 101.762 58.8397C102.309 58.8397 102.842 58.9015 103.363 59.0252C103.884 59.1424 104.366 59.3279 104.809 59.5818C105.258 59.8292 105.658 60.145 106.01 60.5291C106.368 60.9132 106.654 61.3722 106.869 61.9061ZM120.355 63.9276C120.355 64.6893 120.261 65.4835 120.072 66.3104C119.89 67.1372 119.633 67.9477 119.301 68.742C118.969 69.5363 118.572 70.2817 118.109 70.9783C117.647 71.6815 117.139 72.2869 116.586 72.7947L115.346 72.1209C115.521 71.7954 115.688 71.4308 115.844 71.0272C116 70.6235 116.14 70.1971 116.264 69.7479C116.394 69.2921 116.508 68.8234 116.605 68.3416C116.71 67.8598 116.794 67.3846 116.859 66.9158C116.931 66.4406 116.983 65.9816 117.016 65.5389C117.055 65.0897 117.074 64.673 117.074 64.2889C117.074 64.035 117.064 63.7648 117.045 63.4783C117.025 63.1854 116.983 62.8957 116.918 62.6092C116.859 62.3162 116.778 62.0363 116.674 61.7693C116.57 61.5024 116.43 61.268 116.254 61.0662C116.085 60.8644 115.876 60.7016 115.629 60.5779C115.388 60.4542 115.102 60.3924 114.77 60.3924C114.444 60.3924 114.154 60.4673 113.9 60.617C113.646 60.7602 113.422 60.9523 113.227 61.1932C113.031 61.4276 112.862 61.6977 112.719 62.0037C112.582 62.3097 112.468 62.6255 112.377 62.951C112.292 63.27 112.23 63.5858 112.191 63.8983C112.152 64.2108 112.133 64.4907 112.133 64.7381V70.3924H108.822V54.9627H112.123V60.7733C112.546 60.1548 113.064 59.6795 113.676 59.3475C114.294 59.0089 114.978 58.8397 115.727 58.8397C116.508 58.8397 117.188 58.9666 117.768 59.2205C118.347 59.4744 118.829 59.8292 119.213 60.285C119.597 60.7342 119.883 61.2713 120.072 61.8963C120.261 62.5148 120.355 63.1919 120.355 63.9276ZM139.936 66.0955C139.936 66.701 139.857 67.2348 139.701 67.6971C139.551 68.1593 139.337 68.5597 139.057 68.8983C138.783 69.2368 138.458 69.52 138.08 69.7479C137.702 69.9757 137.289 70.158 136.84 70.2947C136.397 70.4315 135.925 70.5291 135.424 70.5877C134.929 70.6463 134.424 70.6756 133.91 70.6756C133.233 70.6756 132.608 70.6235 132.035 70.5193C131.462 70.4217 130.922 70.2654 130.414 70.0506C129.913 69.8292 129.428 69.546 128.959 69.201C128.497 68.8559 128.035 68.436 127.572 67.9412L129.564 65.9197C129.747 66.369 129.997 66.7856 130.316 67.1697C130.635 67.5473 130.984 67.8729 131.361 68.1463C131.745 68.4197 132.143 68.6346 132.553 68.7908C132.963 68.9471 133.35 69.0252 133.715 69.0252C134.145 69.0252 134.548 68.9959 134.926 68.9373C135.303 68.8722 135.632 68.768 135.912 68.6248C136.192 68.4816 136.41 68.2928 136.566 68.0584C136.729 67.8175 136.811 67.518 136.811 67.16C136.811 66.8865 136.749 66.6522 136.625 66.4568C136.501 66.2615 136.339 66.0955 136.137 65.9588C135.941 65.8156 135.717 65.6951 135.463 65.5975C135.209 65.4998 134.949 65.4184 134.682 65.3533C134.421 65.2817 134.164 65.2199 133.91 65.1678C133.656 65.1092 133.432 65.0506 133.236 64.992C132.852 64.8813 132.452 64.7641 132.035 64.6404C131.618 64.5102 131.208 64.3637 130.805 64.201C130.401 64.0382 130.017 63.8527 129.652 63.6443C129.294 63.4295 128.979 63.1789 128.705 62.8924C128.432 62.5994 128.214 62.2641 128.051 61.8865C127.888 61.5024 127.807 61.063 127.807 60.5682C127.807 59.9757 127.878 59.4516 128.021 58.9959C128.171 58.5337 128.38 58.1333 128.646 57.7947C128.913 57.4562 129.229 57.173 129.594 56.9451C129.958 56.7108 130.359 56.5252 130.795 56.3885C131.231 56.2453 131.693 56.1443 132.182 56.0858C132.676 56.0207 133.181 55.9881 133.695 55.9881C134.398 55.9881 135.036 56.0532 135.609 56.1834C136.189 56.3136 136.723 56.4992 137.211 56.7401C137.699 56.9809 138.145 57.2707 138.549 57.6092C138.959 57.9412 139.343 58.3123 139.701 58.7225L137.709 60.744C137.553 60.2752 137.335 59.852 137.055 59.4744C136.781 59.0968 136.475 58.7746 136.137 58.5076C135.798 58.2342 135.443 58.0259 135.072 57.8826C134.701 57.7329 134.343 57.658 133.998 57.658C133.549 57.658 133.135 57.6906 132.758 57.7557C132.38 57.8143 132.055 57.9152 131.781 58.0584C131.514 58.1951 131.306 58.3839 131.156 58.6248C131.007 58.8592 130.932 59.1522 130.932 59.5037C130.932 59.7837 130.987 60.0213 131.098 60.2166C131.208 60.4119 131.355 60.5779 131.537 60.7147C131.726 60.8514 131.938 60.9653 132.172 61.0565C132.406 61.1411 132.647 61.216 132.895 61.2811C133.148 61.3462 133.396 61.4048 133.637 61.4568C133.884 61.5024 134.109 61.5545 134.311 61.6131C134.701 61.7238 135.111 61.841 135.541 61.9647C135.971 62.0884 136.394 62.2348 136.811 62.4041C137.227 62.5669 137.624 62.7557 138.002 62.9705C138.38 63.1854 138.712 63.4425 138.998 63.742C139.285 64.035 139.512 64.3768 139.682 64.7674C139.851 65.1515 139.936 65.5942 139.936 66.0955ZM159.438 63.8104C159.438 64.5851 159.346 65.3924 159.164 66.2322C158.982 67.0721 158.725 67.8924 158.393 68.6932C158.067 69.4874 157.673 70.2394 157.211 70.949C156.749 71.6587 156.234 72.2739 155.668 72.7947L154.428 72.1209C154.617 71.7824 154.789 71.4015 154.945 70.9783C155.102 70.5552 155.245 70.1092 155.375 69.6404C155.505 69.1717 155.619 68.6899 155.717 68.1951C155.814 67.7003 155.896 67.2088 155.961 66.7205C156.033 66.2257 156.085 65.7472 156.117 65.285C156.15 64.8227 156.166 64.3898 156.166 63.9861C156.166 63.7583 156.16 63.5109 156.146 63.244C156.133 62.977 156.104 62.7101 156.059 62.4432C156.02 62.1762 155.958 61.9223 155.873 61.6815C155.788 61.4341 155.671 61.216 155.521 61.0272C155.378 60.8318 155.196 60.6789 154.975 60.5682C154.76 60.451 154.499 60.3924 154.193 60.3924C153.894 60.3924 153.637 60.4738 153.422 60.6365C153.214 60.7928 153.035 60.9979 152.885 61.2518C152.735 61.5057 152.615 61.7921 152.523 62.1111C152.439 62.4302 152.374 62.7524 152.328 63.0779C152.283 63.397 152.25 63.7029 152.23 63.9959C152.217 64.2889 152.211 64.5363 152.211 64.7381V70.3924H148.92V65.1385C148.92 64.9106 148.923 64.6372 148.93 64.3182C148.936 63.9927 148.926 63.6541 148.9 63.3026C148.881 62.951 148.839 62.6027 148.773 62.2576C148.715 61.9061 148.617 61.5936 148.48 61.3201C148.35 61.0467 148.171 60.8253 147.943 60.6561C147.715 60.4803 147.429 60.3924 147.084 60.3924C146.791 60.3924 146.544 60.4738 146.342 60.6365C146.146 60.7993 145.98 61.0109 145.844 61.2713C145.714 61.5252 145.609 61.8149 145.531 62.1404C145.46 62.4595 145.404 62.7817 145.365 63.1072C145.333 63.4262 145.313 63.7322 145.307 64.0252C145.3 64.3117 145.297 64.5493 145.297 64.7381V70.3924H141.986V59.1131H143.256L144.467 61.7401C144.74 60.8286 145.17 60.119 145.756 59.6111C146.348 59.0968 147.133 58.8397 148.109 58.8397C148.988 58.8397 149.717 59.022 150.297 59.3865C150.876 59.7511 151.332 60.3436 151.664 61.1639C151.853 60.8058 152.061 60.4835 152.289 60.1971C152.523 59.9106 152.781 59.6665 153.061 59.4647C153.347 59.2628 153.663 59.1098 154.008 59.0057C154.353 58.895 154.734 58.8397 155.15 58.8397C155.919 58.8397 156.573 58.9666 157.113 59.2205C157.66 59.4679 158.106 59.813 158.451 60.2557C158.796 60.6984 159.047 61.2257 159.203 61.8377C159.359 62.4432 159.438 63.1007 159.438 63.8104ZM165.102 56.3885C165.102 56.6359 165.053 56.8703 164.955 57.0916C164.864 57.313 164.737 57.505 164.574 57.6678C164.411 57.8305 164.219 57.9608 163.998 58.0584C163.777 58.1496 163.542 58.1951 163.295 58.1951C163.048 58.1951 162.813 58.1496 162.592 58.0584C162.377 57.9608 162.188 57.8305 162.025 57.6678C161.863 57.505 161.732 57.313 161.635 57.0916C161.544 56.8703 161.498 56.6359 161.498 56.3885C161.498 56.1411 161.544 55.91 161.635 55.6951C161.732 55.4738 161.863 55.2817 162.025 55.119C162.188 54.9562 162.377 54.8292 162.592 54.7381C162.813 54.6404 163.048 54.5916 163.295 54.5916C163.542 54.5916 163.777 54.6404 163.998 54.7381C164.219 54.8292 164.411 54.9562 164.574 55.119C164.737 55.2817 164.864 55.4738 164.955 55.6951C165.053 55.91 165.102 56.1411 165.102 56.3885ZM164.955 70.3924H161.645V59.1229H164.955V70.3924ZM171.029 70.3924H167.729V53.9178H168.998L171.029 57.3455V70.3924ZM176.498 65.0408C176.902 65.132 177.305 65.2036 177.709 65.2557C178.113 65.3078 178.52 65.3338 178.93 65.3338C179.359 65.3338 179.757 65.2947 180.121 65.2166C180.492 65.132 180.811 64.9953 181.078 64.8065C181.352 64.6111 181.566 64.354 181.723 64.035C181.879 63.716 181.957 63.3188 181.957 62.8436C181.957 62.4595 181.905 62.1079 181.801 61.7889C181.697 61.4699 181.54 61.1964 181.332 60.9686C181.13 60.7407 180.88 60.5649 180.58 60.4412C180.281 60.311 179.932 60.2459 179.535 60.2459C179.164 60.2459 178.829 60.3143 178.529 60.451C178.236 60.5877 177.976 60.7733 177.748 61.0076C177.527 61.2355 177.335 61.5024 177.172 61.8084C177.016 62.1144 176.885 62.4334 176.781 62.7654C176.677 63.0975 176.602 63.4328 176.557 63.7713C176.511 64.1098 176.488 64.4289 176.488 64.7283C176.488 64.7804 176.488 64.8325 176.488 64.8846C176.488 64.9367 176.492 64.9887 176.498 65.0408ZM184.633 62.8143C184.633 63.2765 184.558 63.6899 184.408 64.0545C184.258 64.4126 184.053 64.7283 183.793 65.0018C183.539 65.2752 183.243 65.5063 182.904 65.6951C182.566 65.8839 182.204 66.0402 181.82 66.1639C181.436 66.2811 181.039 66.3657 180.629 66.4178C180.225 66.4699 179.831 66.4959 179.447 66.4959C178.959 66.4959 178.477 66.4634 178.002 66.3983C177.527 66.3266 177.058 66.216 176.596 66.0662C176.667 66.4959 176.781 66.9061 176.938 67.2967C177.094 67.6808 177.302 68.0193 177.562 68.3123C177.823 68.5988 178.142 68.8266 178.52 68.9959C178.904 69.1652 179.356 69.2498 179.877 69.2498C180.222 69.2498 180.551 69.1977 180.863 69.0936C181.176 68.9894 181.462 68.8429 181.723 68.6541C181.983 68.4653 182.211 68.2407 182.406 67.9803C182.608 67.7199 182.771 67.4302 182.895 67.1111L184.32 67.6385C184.105 68.1528 183.809 68.5988 183.432 68.9764C183.061 69.3475 182.637 69.6567 182.162 69.9041C181.693 70.145 181.192 70.324 180.658 70.4412C180.131 70.5584 179.607 70.617 179.086 70.617C178.227 70.617 177.432 70.4738 176.703 70.1873C175.974 69.8943 175.346 69.4874 174.818 68.9666C174.291 68.4458 173.878 67.824 173.578 67.1014C173.279 66.3787 173.129 65.5877 173.129 64.7283C173.129 63.869 173.279 63.0779 173.578 62.3553C173.878 61.6326 174.291 61.0109 174.818 60.4901C175.346 59.9692 175.974 59.5656 176.703 59.2791C177.432 58.9861 178.227 58.8397 179.086 58.8397C179.503 58.8397 179.929 58.869 180.365 58.9276C180.801 58.9861 181.225 59.0805 181.635 59.2108C182.045 59.3345 182.432 59.4972 182.797 59.699C183.161 59.9009 183.477 60.1515 183.744 60.451C184.018 60.744 184.232 61.0858 184.389 61.4764C184.551 61.867 184.633 62.313 184.633 62.8143Z" fill="white"/>
</svg>
