<svg width="312" height="218" viewBox="0 0 312 218" fill="none" xmlns="http://www.w3.org/2000/svg">
<path d="M76.9079 175.853C70.5509 171.3 42.5021 150.091 39.6083 119.416C35.5445 76.3412 84.2737 49.4497 97.6429 42.0716C128.289 25.1596 201.963 -0.348793 248.669 37.7552C286.078 68.2728 283.14 124.41 260 156.524C221.894 209.442 127.353 211.986 76.9079 175.853Z" fill="#EFF5F9"/>
<path d="M256.955 110.424H241.124C240.837 110.424 240.604 110.641 240.604 110.909V116.947C240.604 117.215 240.837 117.432 241.124 117.432H256.955C257.243 117.432 257.475 117.215 257.475 116.947V110.909C257.475 110.641 257.243 110.424 256.955 110.424Z" stroke="#C9EFFB" stroke-width="2" stroke-miterlimit="10"/>
<path d="M256.955 124.415H241.124C240.837 124.415 240.604 124.632 240.604 124.899V130.938C240.604 131.206 240.837 131.423 241.124 131.423H256.955C257.243 131.423 257.475 131.206 257.475 130.938V124.899C257.475 124.632 257.243 124.415 256.955 124.415Z" stroke="#C9EFFB" stroke-width="2" stroke-miterlimit="10"/>
<path d="M265.39 117.432H249.558C249.271 117.432 249.038 117.649 249.038 117.916V123.955C249.038 124.222 249.271 124.439 249.558 124.439H265.39C265.677 124.439 265.91 124.222 265.91 123.955V117.916C265.91 117.649 265.677 117.432 265.39 117.432Z" fill="#C9EFFB"/>
<path d="M248.518 117.432H232.687C232.4 117.432 232.167 117.649 232.167 117.916V123.955C232.167 124.222 232.4 124.439 232.687 124.439H248.518C248.806 124.439 249.038 124.222 249.038 123.955V117.916C249.038 117.649 248.806 117.432 248.518 117.432Z" fill="#C9EFFB"/>
<path d="M71.8927 145.062H56.0613C55.7741 145.062 55.5413 145.279 55.5413 145.547V151.585C55.5413 151.853 55.7741 152.07 56.0613 152.07H71.8927C72.1799 152.07 72.4127 151.853 72.4127 151.585V145.547C72.4127 145.279 72.1799 145.062 71.8927 145.062Z" stroke="#C9EFFB" stroke-width="2" stroke-miterlimit="10"/>
<path d="M80.327 159.05H64.4956C64.2084 159.05 63.9756 159.267 63.9756 159.535V165.573C63.9756 165.841 64.2084 166.058 64.4956 166.058H80.327C80.6142 166.058 80.847 165.841 80.847 165.573V159.535C80.847 159.267 80.6142 159.05 80.327 159.05Z" stroke="#C9EFFB" stroke-width="2" stroke-miterlimit="10"/>
<path d="M83.8319 152.07H68.0005C67.7133 152.07 67.4805 152.286 67.4805 152.554V158.593C67.4805 158.86 67.7133 159.077 68.0005 159.077H83.8319C84.1191 159.077 84.3519 158.86 84.3519 158.593V152.554C84.3519 152.286 84.1191 152.07 83.8319 152.07Z" fill="#C9EFFB"/>
<path d="M66.963 152.07H51.1316C50.8444 152.07 50.6116 152.286 50.6116 152.554V158.593C50.6116 158.86 50.8444 159.077 51.1316 159.077H66.963C67.2502 159.077 67.483 158.86 67.483 158.593V152.554C67.483 152.286 67.2502 152.07 66.963 152.07Z" fill="#C9EFFB"/>
<path d="M170.014 51.6999H154.183C153.895 51.6999 153.663 51.9168 153.663 52.1844V58.223C153.663 58.4905 153.895 58.7074 154.183 58.7074H170.014C170.301 58.7074 170.534 58.4905 170.534 58.223V52.1844C170.534 51.9168 170.301 51.6999 170.014 51.6999Z" fill="#C9EFFB"/>
<path d="M175.713 65.7149H159.882C159.595 65.7149 159.362 65.9318 159.362 66.1993V72.238C159.362 72.5055 159.595 72.7224 159.882 72.7224H175.713C176 72.7224 176.233 72.5055 176.233 72.238V66.1993C176.233 65.9318 176 65.7149 175.713 65.7149Z" fill="#C9EFFB"/>
<path d="M181.956 58.7074H166.124C165.837 58.7074 165.604 58.9243 165.604 59.1918V65.2304C165.604 65.498 165.837 65.7149 166.124 65.7149H181.956C182.243 65.7149 182.476 65.498 182.476 65.2304V59.1918C182.476 58.9243 182.243 58.7074 181.956 58.7074Z" stroke="#C9EFFB" stroke-width="2" stroke-miterlimit="10"/>
<path d="M165.084 58.7074H149.253C148.966 58.7074 148.733 58.9243 148.733 59.1918V65.2304C148.733 65.498 148.966 65.7149 149.253 65.7149H165.084C165.372 65.7149 165.604 65.498 165.604 65.2304V59.1918C165.604 58.9243 165.372 58.7074 165.084 58.7074Z" stroke="#C9EFFB" stroke-width="2" stroke-miterlimit="10"/>
<path d="M174.283 130.475H181.251V125.805H174.283V130.475Z" fill="#E3EAF3"/>
<path d="M159.364 130.989H165.851V127.438H159.364V130.989Z" fill="#E3EAF3"/>
<path d="M137.883 138.805H154.713V133.278H137.883V138.805Z" fill="#E3EAF3"/>
<path d="M119.532 104.032H136.362V98.5045H119.532V104.032Z" fill="#E3EAF3"/>
<path d="M137.771 200.09L138.06 44.1474C138.061 43.7437 138.233 43.3568 138.54 43.0716C138.847 42.7864 139.262 42.6263 139.695 42.6263H154.617C155.075 42.6263 155.527 42.7223 155.94 42.9072L178.672 53.1217L183.04 50.1691L156.9 38.368C156.575 38.2222 156.22 38.1461 155.86 38.1451H135.658C135.02 38.1451 134.409 38.3809 133.958 38.8005C133.507 39.2202 133.253 39.7895 133.253 40.3833L132.961 200.076L137.771 200.09Z" fill="#54A4CC"/>
<path d="M135.296 43.3142C135.296 42.0764 135.598 40.0781 137.566 40.0781H155.891C156.252 40.0781 158.623 41.1536 158.948 41.2892L181.254 51.3608L178.654 53.1121L155.922 42.8976C155.509 42.7126 155.057 42.6166 154.599 42.6166H139.688C139.254 42.6166 138.839 42.7768 138.532 43.062C138.225 43.3472 138.053 43.7341 138.052 44.1377L137.771 200.08H135.015L135.296 43.3142Z" fill="#396E8E"/>
<path d="M209.065 81.1207C227.143 73.9093 238.475 60.8337 234.376 51.9154C230.277 42.9972 212.299 41.6135 194.222 48.8248C176.144 56.0362 164.812 69.1118 168.911 78.0301C173.01 86.9483 190.987 88.332 209.065 81.1207Z" fill="#E3EAF3"/>
<path d="M212.29 44.3824C208.325 44.2885 204.363 44.6464 200.491 45.4481C198.562 45.826 196.655 46.2903 194.771 46.8409C192.894 47.3883 191.04 48.0012 189.225 48.6963C185.597 50.0749 182.095 51.7275 178.755 53.6377C177.094 54.5945 175.482 55.6191 173.935 56.7187C172.39 57.8094 170.914 58.983 169.515 60.2334C168.117 61.4681 166.824 62.801 165.646 64.2204C165.339 64.5667 165.079 64.947 164.793 65.2934C164.507 65.6398 164.273 66.0322 164.013 66.4028C163.517 67.1498 163.067 67.923 162.666 68.7184C162.269 69.4996 161.942 70.3097 161.686 71.1407C161.439 71.9634 161.276 72.806 161.2 73.6573C161.151 74.4917 161.209 75.3285 161.374 76.1498L161.53 76.7578C161.577 76.9613 161.668 77.1502 161.733 77.3512L161.842 77.6467L161.975 77.9326C162.058 78.1263 162.167 78.3104 162.266 78.4969C163.098 79.9842 164.445 81.2147 166.005 82.186C167.618 83.1544 169.383 83.8849 171.236 84.3515C173.123 84.8522 175.056 85.188 177.011 85.3543C178.989 85.5285 180.978 85.5924 182.965 85.5456C178.983 86.2 174.908 86.1869 170.932 85.5069C168.894 85.1366 166.931 84.473 165.113 83.54C164.185 83.0512 163.324 82.4608 162.547 81.7815C161.748 81.092 161.059 80.3001 160.501 79.4295C160.365 79.2067 160.222 78.9887 160.108 78.7561L159.926 78.4122L159.77 78.0561C159.674 77.8139 159.554 77.5838 159.479 77.3294L159.247 76.5907C158.999 75.5945 158.885 74.5732 158.909 73.5508C158.952 72.5455 159.106 71.5471 159.37 70.5714C159.634 69.6124 159.981 68.6751 160.41 67.7689C161.26 65.9897 162.33 64.3094 163.6 62.7622C164.851 61.2368 166.227 59.8042 167.716 58.4773C170.684 55.864 173.965 53.5777 177.494 51.6636C179.249 50.7116 181.048 49.8324 182.889 49.0427C183.352 48.8514 183.807 48.6479 184.275 48.4638L185.674 47.914C186.618 47.5749 187.559 47.2285 188.518 46.9257C190.423 46.292 192.361 45.7519 194.327 45.3077C196.29 44.8694 198.275 44.5234 200.275 44.2709C204.274 43.8107 208.348 43.7356 212.29 44.3824Z" fill="#80CBE8"/>
<path d="M175.973 80.5607C171.886 71.6711 180.684 59.6327 195.621 53.674C210.558 47.7153 225.982 50.0915 230.069 58.9811C231.109 61.2483 231.314 63.719 230.792 66.2478C234.809 61.2459 236.306 56.118 234.374 51.9131C230.274 42.9944 212.298 41.6113 194.22 48.8247C176.142 56.0381 164.811 69.106 168.909 78.0222C170.55 81.5925 174.416 83.9518 179.618 85.0466C178.035 83.8456 176.784 82.3069 175.973 80.5607Z" fill="#80CBE8"/>
<path d="M188.643 81.9714C192.216 80.546 194.415 77.8712 193.553 75.997C192.692 74.1229 189.097 73.7591 185.524 75.1845C181.95 76.6099 179.752 79.2848 180.613 81.1589C181.475 83.0331 185.07 83.3969 188.643 81.9714Z" fill="#80CBE8"/>
<path d="M199.834 64.9911C203.408 63.5656 205.606 60.8908 204.745 59.0167C203.883 57.1425 200.288 56.7787 196.715 58.2041C193.142 59.6296 190.943 62.3044 191.805 64.1786C192.666 66.0527 196.261 66.4165 199.834 64.9911Z" fill="#80CBE8"/>
<path d="M222.217 66.6953C225.79 65.2698 227.989 62.595 227.127 60.7208C226.266 58.8467 222.671 58.4829 219.097 59.9083C215.524 61.3338 213.326 64.0086 214.187 65.8828C215.049 67.7569 218.644 68.1207 222.217 66.6953Z" fill="#80CBE8"/>
<path d="M208.292 78.4603C211.865 77.0349 214.064 74.3601 213.202 72.4859C212.341 70.6118 208.746 70.248 205.172 71.6734C201.599 73.0988 199.401 75.7737 200.262 77.6478C201.123 79.522 204.718 79.8858 208.292 78.4603Z" fill="#80CBE8"/>
<path d="M87.9711 118.65H118.03C118.86 118.65 119.532 118.023 119.532 117.25V97.2861C119.532 96.5129 118.86 95.8861 118.03 95.8861H87.9711C87.1411 95.8861 86.4683 96.5129 86.4683 97.2861V117.25C86.4683 118.023 87.1411 118.65 87.9711 118.65Z" fill="#E3EAF3"/>
<path d="M98.4282 114.341C99.1002 114.341 99.645 113.833 99.645 113.207C99.645 112.581 99.1002 112.074 98.4282 112.074C97.7562 112.074 97.2114 112.581 97.2114 113.207C97.2114 113.833 97.7562 114.341 98.4282 114.341Z" fill="#80CBE8"/>
<path d="M89.4141 114.341C90.0861 114.341 90.6309 113.833 90.6309 113.207C90.6309 112.581 90.0861 112.074 89.4141 112.074C88.742 112.074 88.1973 112.581 88.1973 113.207C88.1973 113.833 88.742 114.341 89.4141 114.341Z" fill="#80CBE8"/>
<path d="M93.9197 114.341C94.5917 114.341 95.1365 113.833 95.1365 113.207C95.1365 112.581 94.5917 112.074 93.9197 112.074C93.2477 112.074 92.7029 112.581 92.7029 113.207C92.7029 113.833 93.2477 114.341 93.9197 114.341Z" fill="#80CBE8"/>
<path d="M89.6791 104.819H97.9445C98.9884 104.819 99.8347 104.031 99.8347 103.058V99.4758C99.8347 98.5033 98.9884 97.7149 97.9445 97.7149H89.6791C88.6352 97.7149 87.7889 98.5033 87.7889 99.4758V103.058C87.7889 104.031 88.6352 104.819 89.6791 104.819Z" fill="#80CBE8"/>
<path d="M107.494 116.758H115.76C116.804 116.758 117.65 115.97 117.65 114.997V111.415C117.65 110.442 116.804 109.654 115.76 109.654H107.494C106.45 109.654 105.604 110.442 105.604 111.415V114.997C105.604 115.97 106.45 116.758 107.494 116.758Z" fill="#80CBE8"/>
<path d="M107.494 104.819H115.76C116.804 104.819 117.65 104.031 117.65 103.058V99.4758C117.65 98.5033 116.804 97.7149 115.76 97.7149H107.494C106.45 97.7149 105.604 98.5033 105.604 99.4758V103.058C105.604 104.031 106.45 104.819 107.494 104.819Z" fill="#80CBE8"/>
<path d="M102.188 118.65H103.81V95.8861H102.188V118.65Z" fill="#80CBE8"/>
<path d="M119.532 108.024V106.512H86.4683V108.024H119.532Z" fill="#80CBE8"/>
<path d="M84.032 94.9971V119.539C84.032 119.979 84.2193 120.4 84.5527 120.711C84.8861 121.023 85.3385 121.198 85.8104 121.198H120.185C120.419 121.198 120.65 121.155 120.867 121.072C121.083 120.989 121.279 120.866 121.444 120.712C121.61 120.558 121.741 120.375 121.83 120.174C121.92 119.973 121.966 119.757 121.966 119.539V94.9971C121.966 94.7792 121.92 94.5635 121.83 94.3622C121.741 94.1609 121.61 93.978 121.444 93.8239C121.279 93.6698 121.083 93.5476 120.867 93.4642C120.65 93.3808 120.419 93.3379 120.185 93.3379H85.8C85.3299 93.3411 84.8802 93.5173 84.549 93.8281C84.2178 94.139 84.032 94.5592 84.032 94.9971ZM86.4656 97.2861C86.4656 96.9148 86.6239 96.5587 86.9057 96.2961C87.1876 96.0336 87.5698 95.8861 87.9684 95.8861H118.04C118.237 95.8861 118.432 95.9223 118.615 95.9927C118.797 96.0631 118.962 96.1663 119.102 96.2963C119.241 96.4263 119.351 96.5807 119.427 96.7505C119.502 96.9204 119.541 97.1024 119.54 97.2861V117.25C119.541 117.434 119.502 117.616 119.427 117.786C119.351 117.956 119.241 118.11 119.102 118.24C118.962 118.37 118.797 118.473 118.615 118.544C118.432 118.614 118.237 118.65 118.04 118.65H87.9684C87.5698 118.65 87.1876 118.503 86.9057 118.24C86.6239 117.978 86.4656 117.621 86.4656 117.25V97.2861Z" fill="#80CBE8"/>
<path d="M153.527 142.23H185.149C185.711 142.23 186.168 141.805 186.168 141.281V130.802C186.168 130.278 185.711 129.853 185.149 129.853H153.527C152.964 129.853 152.508 130.278 152.508 130.802V141.281C152.508 141.805 152.964 142.23 153.527 142.23Z" fill="#80CBE8"/>
<path d="M124.605 25.2347H40.7421C39.9825 25.2347 39.3667 25.8084 39.3667 26.5161V49.7742C39.3667 50.4819 39.9825 51.0556 40.7421 51.0556H124.605C125.365 51.0556 125.98 50.4819 125.98 49.7742V26.5161C125.98 25.8084 125.365 25.2347 124.605 25.2347Z" fill="#E3EAF3"/>
<path d="M125.962 36.4787H39.6424C39.5838 36.4787 39.5276 36.457 39.4861 36.4184C39.4447 36.3798 39.4214 36.3274 39.4214 36.2728C39.4214 36.2182 39.4447 36.1658 39.4861 36.1272C39.5276 36.0886 39.5838 36.0669 39.6424 36.0669H125.962C126.021 36.0669 126.077 36.0886 126.119 36.1272C126.16 36.1658 126.183 36.2182 126.183 36.2728C126.183 36.3274 126.16 36.3798 126.119 36.4184C126.077 36.457 126.021 36.4787 125.962 36.4787Z" fill="#ABBCCA"/>
<path d="M122.236 43.5104H43.108C42.8639 43.5104 42.666 43.6947 42.666 43.9222V47.7105C42.666 47.9379 42.8639 48.1223 43.108 48.1223H122.236C122.481 48.1223 122.678 47.9379 122.678 47.7105V43.9222C122.678 43.6947 122.481 43.5104 122.236 43.5104Z" fill="#ABBCCA"/>
<path d="M122.062 45.1042H43.2823C43.2237 45.1042 43.1675 45.0825 43.126 45.0439C43.0846 45.0053 43.0613 44.9529 43.0613 44.8983C43.0613 44.8437 43.0846 44.7913 43.126 44.7527C43.1675 44.7141 43.2237 44.6924 43.2823 44.6924H122.062C122.121 44.6924 122.177 44.7141 122.219 44.7527C122.26 44.7913 122.283 44.8437 122.283 44.8983C122.283 44.9529 122.26 45.0053 122.219 45.0439C122.177 45.0825 122.121 45.1042 122.062 45.1042Z" fill="#E3EAF3"/>
<path d="M122.062 46.9039H43.2823C43.2237 46.9039 43.1675 46.8822 43.126 46.8436C43.0846 46.805 43.0613 46.7526 43.0613 46.698C43.0613 46.6434 43.0846 46.591 43.126 46.5524C43.1675 46.5138 43.2237 46.4921 43.2823 46.4921H122.062C122.121 46.4921 122.177 46.5138 122.219 46.5524C122.26 46.591 122.283 46.6434 122.283 46.698C122.283 46.7526 122.26 46.805 122.219 46.8436C122.177 46.8822 122.121 46.9039 122.062 46.9039Z" fill="#E3EAF3"/>
<path d="M118.693 29.6165H111.657C111.413 29.6165 111.215 29.8009 111.215 30.0283V32.5862C111.215 32.8136 111.413 32.9979 111.657 32.9979H118.693C118.937 32.9979 119.135 32.8136 119.135 32.5862V30.0283C119.135 29.8009 118.937 29.6165 118.693 29.6165Z" fill="#ABBCCA"/>
<path d="M113.272 32.2592C113.836 32.2592 114.294 31.833 114.294 31.3072C114.294 30.7815 113.836 30.3553 113.272 30.3553C112.707 30.3553 112.25 30.7815 112.25 31.3072C112.25 31.833 112.707 32.2592 113.272 32.2592Z" fill="#E3EAF3"/>
<path d="M117.078 32.2592C117.643 32.2592 118.1 31.833 118.1 31.3072C118.1 30.7815 117.643 30.3553 117.078 30.3553C116.514 30.3553 116.056 30.7815 116.056 31.3072C116.056 31.833 116.514 32.2592 117.078 32.2592Z" fill="#E3EAF3"/>
<path d="M285.054 34.8437H251.729V62.3989H285.054V34.8437Z" fill="#E3EAF3"/>
<path d="M250.237 34.1994V62.6726C250.237 62.9938 250.374 63.3018 250.618 63.529C250.862 63.7561 251.192 63.8837 251.537 63.8837H284.76C285.105 63.8837 285.435 63.7561 285.679 63.529C285.923 63.3018 286.06 62.9938 286.06 62.6726V34.1994C286.06 33.8782 285.923 33.5701 285.679 33.343C285.435 33.1158 285.105 32.9883 284.76 32.9883H251.537C251.192 32.9883 250.862 33.1158 250.618 33.343C250.374 33.5701 250.237 33.8782 250.237 34.1994ZM281.84 61.3743H254.446C254.102 61.3743 253.771 61.2467 253.527 61.0195C253.283 60.7924 253.146 60.4844 253.146 60.1632V36.7088C253.146 36.3876 253.283 36.0795 253.527 35.8524C253.771 35.6253 254.102 35.4977 254.446 35.4977H281.84C282.185 35.4977 282.515 35.6253 282.759 35.8524C283.003 36.0795 283.14 36.3876 283.14 36.7088V60.1632C283.14 60.4844 283.003 60.7924 282.759 61.0195C282.515 61.2467 282.185 61.3743 281.84 61.3743Z" fill="#A04833"/>
<path fill-rule="evenodd" clip-rule="evenodd" d="M267.8 41.6307H268.944C269.95 41.3223 270.987 41.1089 272.038 40.9937C273.411 40.8871 274.898 41.8463 275.132 44.0893C275.366 46.3323 273.988 49.0016 273.528 51.0338C273.068 53.0661 272.842 55.5173 271.807 55.8371C270.772 56.1568 269.987 54.7713 269.514 53.0588C269.04 51.3463 268.83 50.8134 268.255 50.8134C268.223 50.8155 268.191 50.8155 268.159 50.8134C268.128 50.8157 268.097 50.8157 268.065 50.8134C267.491 50.8134 267.267 51.3487 266.807 53.0588C266.347 54.7689 265.549 56.1544 264.514 55.8371C263.479 55.5198 263.253 53.0588 262.793 51.0338C262.332 49.0088 260.96 46.3347 261.188 44.0893C261.417 41.8439 262.907 40.8871 264.282 40.9937C265.334 41.1115 266.37 41.3249 267.376 41.6307H267.8Z" fill="#80CBE8"/>
<path d="M267.8 41.5823H268.944H268.926C269.495 41.4079 270.065 41.2384 270.647 41.0979C270.938 41.0325 271.232 40.9622 271.528 40.9114C271.833 40.8501 272.143 40.8201 272.454 40.8217C272.778 40.829 273.098 40.8905 273.398 41.0034C273.701 41.1236 273.981 41.287 274.23 41.4878C274.475 41.6904 274.688 41.9235 274.864 42.1806C275.036 42.4378 275.177 42.7115 275.286 42.9969C275.489 43.563 275.593 44.156 275.595 44.753C275.589 45.3354 275.52 45.9157 275.387 46.4849C275.107 47.5779 274.756 48.6537 274.334 49.7064C274.141 50.2296 273.962 50.7432 273.814 51.2688C273.666 51.7944 273.554 52.3442 273.408 52.8892C273.263 53.4342 273.148 53.9792 272.951 54.5218C272.857 54.7975 272.738 55.0649 272.594 55.3212C272.446 55.6067 272.196 55.8359 271.887 55.9703C271.723 56.0267 271.547 56.0449 271.374 56.0234C271.201 56.0019 271.036 55.9412 270.894 55.8468C270.631 55.676 270.408 55.4557 270.241 55.2C270.075 54.9591 269.932 54.7045 269.815 54.4395C269.691 54.1803 269.583 53.9151 269.49 53.645C269.311 53.1024 269.16 52.5695 268.97 52.0536C268.888 51.8012 268.777 51.5576 268.64 51.3269C268.591 51.2414 268.519 51.1689 268.432 51.1162C268.4 51.0971 268.363 51.0863 268.325 51.0847C268.304 51.0834 268.282 51.0834 268.26 51.0847H268.115H268.198H268.05C268.029 51.0831 268.008 51.0831 267.987 51.0847C267.954 51.0927 267.923 51.1067 267.896 51.1259C267.823 51.1865 267.765 51.2608 267.725 51.3439C267.614 51.578 267.527 51.8213 267.465 52.0705C267.319 52.5962 267.205 53.129 267.051 53.6934C266.969 53.9753 266.87 54.2527 266.755 54.5242C266.639 54.8064 266.495 55.078 266.326 55.3357C266.141 55.6301 265.891 55.8844 265.593 56.0817L265.463 56.1592L265.312 56.2222C265.208 56.2624 265.098 56.2908 264.987 56.307C264.872 56.3167 264.756 56.3167 264.641 56.307C264.529 56.2914 264.418 56.2663 264.311 56.2319C264.098 56.1537 263.907 56.0301 263.754 55.871C263.688 55.8032 263.628 55.7312 263.572 55.6554L263.427 55.4374C263.277 55.1623 263.153 54.8754 263.058 54.58C262.883 54.0308 262.738 53.4738 262.624 52.911L262.285 51.2857C262.171 50.7601 262.026 50.2514 261.844 49.7234C261.519 48.6673 261.121 47.6015 260.897 46.4679C260.772 45.8957 260.713 45.3127 260.72 44.7288C260.728 44.1326 260.841 43.5416 261.056 42.9799C261.265 42.4061 261.628 41.8916 262.111 41.4854C262.356 41.2845 262.633 41.121 262.933 41.001C263.23 40.8901 263.546 40.8279 263.866 40.8169C264.176 40.8141 264.485 40.8442 264.787 40.9065C265.083 40.955 265.377 41.0155 265.668 41.0833C266.248 41.2262 266.823 41.3692 267.392 41.5484H267.374L267.8 41.5823ZM267.8 41.6792H267.376H267.358C266.792 41.5137 266.215 41.3794 265.632 41.2771C265.34 41.2262 265.049 41.1826 264.755 41.1512C264.47 41.117 264.181 41.1129 263.895 41.139C263.621 41.1742 263.357 41.2564 263.115 41.3813C262.876 41.5059 262.659 41.6644 262.473 41.8512C262.112 42.2365 261.861 42.7006 261.745 43.2004C261.625 43.7049 261.584 44.223 261.622 44.7385C261.664 45.2649 261.751 45.7874 261.882 46.3008C262.142 47.3424 262.538 48.3791 262.904 49.4497C263.091 49.9941 263.247 50.5471 263.372 51.1065C263.492 51.6636 263.593 52.211 263.692 52.7536C263.781 53.2855 263.9 53.8126 264.048 54.3329C264.114 54.5711 264.201 54.8036 264.308 55.0281C264.378 55.182 264.496 55.3129 264.646 55.4035C264.714 55.4302 264.788 55.4398 264.861 55.4313C264.934 55.4228 265.004 55.3965 265.062 55.3551C265.251 55.2296 265.412 55.0708 265.535 54.8876C265.829 54.4495 266.062 53.9782 266.227 53.4851C266.406 52.9861 266.549 52.4314 266.747 51.8937C266.847 51.6063 266.976 51.3289 267.134 51.0653C267.234 50.9024 267.374 50.7637 267.543 50.6608C267.689 50.5811 267.855 50.5393 268.024 50.5397H268.182H268.26C268.312 50.5397 268.362 50.5397 268.416 50.5591C268.526 50.58 268.631 50.6212 268.723 50.6802C268.881 50.7855 269.008 50.9263 269.092 51.0895C269.231 51.3558 269.338 51.6351 269.412 51.9228C269.573 52.4678 269.672 53.0225 269.833 53.5432C269.976 54.0684 270.201 54.5712 270.501 55.0353C270.64 55.2575 270.827 55.4504 271.05 55.6021C271.152 55.6693 271.27 55.7118 271.394 55.7258C271.518 55.7397 271.644 55.7247 271.76 55.6821C271.993 55.5724 272.177 55.3897 272.28 55.1661C272.399 54.9242 272.494 54.6729 272.566 54.4152C272.709 53.8823 272.818 53.342 272.893 52.7972C272.977 52.2498 273.052 51.6975 273.153 51.1428C273.252 50.5835 273.383 50.0296 273.546 49.4836C273.855 48.4009 274.23 47.3545 274.466 46.3032C274.703 45.252 274.83 44.2032 274.557 43.2004C274.437 42.7063 274.187 42.2478 273.829 41.8657C273.645 41.6813 273.431 41.5252 273.195 41.4031C272.953 41.2794 272.689 41.1974 272.415 41.1608C272.13 41.1307 271.842 41.1307 271.557 41.1608C271.266 41.1899 270.972 41.2214 270.681 41.2747C270.097 41.3748 269.519 41.5066 268.952 41.6695H268.934L267.8 41.6792Z" fill="#454851"/>
<path fill-rule="evenodd" clip-rule="evenodd" d="M277.75 38.5376V38.557H277.763C277.763 38.557 277.763 38.557 277.784 38.557H277.8H277.826H277.854H277.872H277.893H277.914H277.93H277.958H277.976H278.039H278.073H278.106H278.138H278.197H278.226H278.265H278.286H278.439C278.659 38.5922 278.861 38.6898 279.019 38.8364C279.177 38.9829 279.282 39.1712 279.321 39.3757V39.5162V39.5355V39.6276V39.647V39.6784V39.6954V39.7099V39.7414V39.7729V39.7899V39.848V39.8892V39.911V39.9231L279.336 39.9715V39.9836V40.0006V40.0248V40.049H279.362H279.388V40.2089V40.1847V40.1677V40.1556L279.404 40.1072V40.0951V40.083V40.0418V39.9836V39.9667V39.9352V39.9037V39.8892V39.8722V39.8407V39.7245V39.7051V39.6688V39.6494V39.5089C279.44 39.3036 279.545 39.1141 279.703 38.9672C279.861 38.8203 280.065 38.7234 280.285 38.6902H280.439H280.459H280.498H280.527H280.587H280.618H280.649H280.667H280.686H280.748H280.764H280.782H280.808H280.826H280.847H280.868H280.886H280.914H280.94H280.956H280.977L280.992 38.6732V38.6538V38.5134C280.992 38.5134 280.992 38.5134 280.972 38.5134H280.956H280.93H280.901H280.878H280.86H280.834H280.816H280.8H281.06H281.042H281.026H281.008H280.974H280.959H280.92H280.899H280.868H280.839H280.626C280.406 38.4777 280.204 38.38 280.046 38.2336C279.889 38.0871 279.783 37.8989 279.744 37.6946V37.5517V37.5324V37.496V37.4766V37.3022V37.2708V37.2562V37.2393V37.2078V37.1763V37.1618V37.1012V37.0624V37.0503V37.014V37.0019V36.9874V36.9631V36.951H279.685V36.9631V36.9801V37.0043V37.0188V37.031V37.0673V37.0915V37.1303V37.1908V37.2054V37.2368V37.2683V37.2853V37.2998V37.3313V37.3507V37.4427V37.4621V37.605C279.648 37.8102 279.543 37.9994 279.385 38.1463C279.227 38.2931 279.024 38.3901 278.803 38.4237H278.59H278.561H278.53H278.509H278.2H278.184H278.166H278.132H278.117H278.099H278.057H278.039H278.023H278.005H277.989H277.94H277.911H277.885H277.87H277.849L277.833 38.4407V38.4649L277.75 38.5376Z" fill="#80CBE8"/>
<path fill-rule="evenodd" clip-rule="evenodd" d="M273.754 39.3926V39.412L273.77 39.4265H273.819H273.837H273.879H274.012H274.027H274.209C274.35 39.4481 274.481 39.5104 274.582 39.6047C274.683 39.699 274.75 39.8205 274.773 39.9521V40.1944V40.2137V40.2307V40.2452V40.4123H274.805L274.82 40.3978V40.267V40.2404V40.1992V40.1798V39.9376C274.845 39.8066 274.912 39.6858 275.013 39.5917C275.114 39.4977 275.244 39.4349 275.384 39.412H275.566H275.585H275.715H275.759H275.774H275.826L275.847 39.3926V39.3538L275.826 39.332H275.78H275.764H275.73H275.717H275.699H275.369C275.228 39.3091 275.098 39.2463 274.997 39.1523C274.897 39.0582 274.829 38.9375 274.805 38.8064V38.5642V38.5448V38.5133V38.4843V38.3559L274.789 38.3389H274.763V38.5133V38.5303V38.5448V38.5642V38.8064C274.739 38.9376 274.671 39.0585 274.57 39.1527C274.469 39.2468 274.34 39.3095 274.199 39.332H273.869H273.853H273.84H273.806H273.788H273.78L273.765 39.349L273.754 39.3926Z" fill="#80CBE8"/>
<path fill-rule="evenodd" clip-rule="evenodd" d="M276.414 42.7886V42.8079L276.432 42.8225H276.448H276.466H276.487H276.518H276.708H276.728H276.942C277.105 42.8482 277.256 42.9208 277.373 43.0303C277.49 43.1397 277.567 43.2805 277.594 43.4329V43.6945V43.7163V43.7405V43.7599V43.8083V43.8325V43.8471V43.8592V43.8713H277.62V43.8592V43.8447V43.8301V43.8132V43.7647V43.7453V43.4377C277.648 43.2853 277.726 43.1446 277.843 43.0353C277.961 42.9259 278.112 42.8533 278.275 42.8273H278.486H278.509H278.699H278.73H278.751H278.767C278.767 42.8273 278.767 42.8273 278.785 42.8273L278.803 42.8128V42.774L278.785 42.7571C278.785 42.7571 278.785 42.7571 278.767 42.7571H278.751H278.98H278.959H278.946H278.928H278.71H278.686H278.535C278.372 42.7313 278.221 42.659 278.104 42.5501C277.987 42.4412 277.909 42.3011 277.88 42.1491V41.8391V41.8197V41.7737V41.7567V41.7422V41.7252V41.7131H277.854V41.7252V41.7373V41.7543V41.7688V41.7858V41.8318V41.8512V41.8754V41.8996V42.1612C277.827 42.3132 277.749 42.4534 277.632 42.5624C277.515 42.6713 277.365 42.7436 277.202 42.7692H277.048H277.027H276.806H276.791H276.77H276.736H276.718C276.718 42.7692 276.718 42.7692 276.702 42.7692L276.684 42.7861L276.414 42.7886Z" fill="#80CBE8"/>
<path fill-rule="evenodd" clip-rule="evenodd" d="M270.572 44.0239V44.0433L270.587 44.0578C270.587 44.0578 270.587 44.0578 270.605 44.0578H270.621H270.644H270.665H270.858H270.878H270.917H270.938H271.092C271.255 44.0841 271.405 44.1566 271.521 44.2654C271.638 44.3743 271.716 44.5141 271.744 44.6658V44.9274V44.9492V45.0534V45.0848V45.1163V45.1406V45.1575H271.757H271.783V45.143V45.126V45.1018V45.0703V45.017V44.9952V44.7336C271.811 44.5819 271.889 44.4421 272.006 44.3332C272.123 44.2244 272.273 44.1519 272.436 44.1256H272.589H272.61H272.649H272.67H272.86H272.873H272.893H272.914H272.932C272.932 44.1256 272.932 44.1256 272.948 44.1256L272.964 44.1111V44.0699L272.948 44.0554C272.948 44.0554 272.948 44.0554 272.932 44.0554H272.914H272.893H272.865H272.675H272.654H272.615H272.594H272.441C272.278 44.0292 272.128 43.9566 272.011 43.8478C271.894 43.739 271.817 43.5991 271.788 43.4474V43.1858V43.164V43.1107V43.0792V43.0623V43.0478V43.0308V43.0163V43.0042H271.762V43.0163L271.749 43.0284V43.0453V43.0696V43.0841V43.1156V43.1471V43.2004V43.2222V43.4838C271.721 43.6354 271.644 43.7753 271.527 43.8841C271.41 43.993 271.26 44.0655 271.097 44.0917H270.943H270.923H270.884H270.863H270.67H270.642H270.618H270.603C270.603 44.0917 270.603 44.0917 270.585 44.0917L270.569 44.1063L270.572 44.0239Z" fill="#E3EAF3"/>
<path fill-rule="evenodd" clip-rule="evenodd" d="M258.887 57.7749V57.7506C258.887 57.7506 258.887 57.7506 258.866 57.7506H258.848H258.822H258.794H258.773H258.752H258.736H258.718H258.705H258.69H258.671H258.609H258.575H258.557H258.541H258.51H258.45H258.422H258.209C257.989 57.715 257.787 57.6173 257.629 57.4708C257.472 57.3244 257.366 57.1362 257.327 56.9319V56.789V56.7696V56.6776V56.6582V56.6267V56.6098V56.5783V56.5638V56.5323V56.5008V56.4717V56.4572V56.4184V56.3942V56.3821L257.312 56.3336V56.3215V56.307V56.2828L257.299 56.2707H257.273H257.247V56.2828V56.307L257.234 56.3312V56.3457V56.3579L257.218 56.4063V56.4184V56.4305V56.4693V56.5274V56.5444V56.5759V56.6073V56.6219V56.6388V56.6703V56.726V56.7454V56.7817V56.8011V56.944C257.181 57.1492 257.077 57.3384 256.918 57.4853C256.76 57.6321 256.557 57.7292 256.337 57.7628H256.123H256.095H256.035H256.006H255.988H255.954H255.936H255.874H255.861H255.845H255.827H255.801H255.783H255.762H255.741H255.728H255.7H255.674H255.658H255.637L255.622 57.7797V57.8039V57.8233C255.622 57.8233 255.635 57.8233 255.642 57.8233H255.658H255.684H255.713H255.726H255.746H255.767H255.785H255.811H255.83H255.845H255.858H255.921H255.939H255.973H255.991H256.019H256.079H256.108H256.321C256.54 57.8589 256.743 57.9566 256.9 58.1031C257.058 58.2496 257.164 58.4377 257.202 58.642V58.7849V58.8043V58.8406V58.86V58.9157V58.9472V58.9642V58.9787V59.1022V59.1337V59.1507V59.2088V59.2476V59.2597V59.2718V59.3081V59.3202V59.3348L257.215 59.359V59.3711H257.241H257.267H257.28V59.359V59.342V59.3178V59.3033V59.2912V59.2548V59.2427V59.2185V59.1798V59.1652V59.1361V59.1047V59.0732V59.0586V59.0272V59.0102V58.9787V58.9593V58.8673V58.8479V58.705C257.317 58.4999 257.422 58.3106 257.58 58.1637C257.738 58.0169 257.941 57.9199 258.162 57.8863H258.375H258.404H258.463H258.495H258.51H258.528H258.562H258.625H258.643H258.658H258.671H258.69H258.705H258.726H258.747H258.775H258.801H258.82H258.84L258.856 57.8693V57.85L258.887 57.7749Z" fill="#80CBE8"/>
<path fill-rule="evenodd" clip-rule="evenodd" d="M262.883 56.9222V56.9029L262.868 56.8859H262.818H262.8H262.759H262.6H262.584H262.402C262.261 56.8647 262.13 56.8025 262.029 56.7081C261.928 56.6137 261.861 56.492 261.838 56.3603V56.1181V56.0987V56.0817V56.0672V55.9001H261.807L261.791 55.9146V56.0454V56.0745V56.1132V56.1326V56.3748C261.767 56.5058 261.699 56.6266 261.599 56.7207C261.498 56.8147 261.368 56.8775 261.227 56.9004H261.045H261.027H260.897H260.78H260.764H260.712L260.692 56.9198V56.961L260.712 56.9804H260.759H260.775H260.79H260.835H260.965H260.983H261.165C261.306 57.0026 261.436 57.0652 261.537 57.1593C261.638 57.2535 261.705 57.3747 261.729 57.506V57.7482V57.7676V57.8063V57.8354V57.9662L261.745 57.9807H261.771V57.8136V57.7991V57.7821V57.7627V57.5205C261.794 57.3891 261.861 57.2677 261.962 57.1735C262.064 57.0793 262.194 57.0168 262.335 56.9949H262.517H262.532H262.665H262.707H262.725H262.743H262.79L262.805 56.9779L262.883 56.9222Z" fill="#80CBE8"/>
<path fill-rule="evenodd" clip-rule="evenodd" d="M260.224 53.5311V53.5117L260.208 53.4972H260.193H260.174H260.154H260.122H260.094H260.081H259.92H259.899H259.686C259.522 53.4708 259.372 53.398 259.255 53.2886C259.138 53.1793 259.061 53.0389 259.033 52.8868V52.5622V52.538V52.5138V52.4944V52.446V52.4217V52.4072V52.3903V52.3781H258.999L258.986 52.3903V52.4048V52.429V52.4605V52.492V52.5114V52.819C258.958 52.9714 258.88 53.1121 258.763 53.2214C258.646 53.3308 258.495 53.4035 258.331 53.4294H257.92H257.899H257.738H257.725H257.694H257.66H257.637H257.621C257.621 53.4294 257.621 53.4294 257.603 53.4294L257.585 53.4439V53.5311L257.603 53.5481H257.621H257.634H257.65H257.66H257.681H257.694H257.712H257.725H257.944H257.967H258.118C258.281 53.5739 258.432 53.6462 258.549 53.7551C258.666 53.8639 258.745 54.004 258.773 54.1561V54.4661V54.4855V54.517V54.5485V54.5654V54.5872V54.6042H258.786V54.7422H258.812L258.825 54.7301V54.7156V54.6986V54.6817V54.6671V54.6211V54.6017V54.5V54.4758V54.2142C258.853 54.0625 258.931 53.9227 259.048 53.8138C259.165 53.705 259.315 53.6324 259.478 53.6062H259.631H259.652H259.873H259.886H259.901H259.914H259.935H259.969H259.987C259.987 53.6062 260 53.6062 260.003 53.6062L260.018 53.5893L260.224 53.5311Z" fill="#80CBE8"/>
<path d="M100.511 148.129H46.8704C45.5263 148.129 44.4368 149.144 44.4368 150.396V151.246C44.4368 152.498 45.5263 153.513 46.8704 153.513H100.511C101.855 153.513 102.945 152.498 102.945 151.246V150.396C102.945 149.144 101.855 148.129 100.511 148.129Z" fill="#CC7829"/>
<path d="M48.6955 200.09H43.6853L49.9383 153.513H54.9095L48.6955 200.09Z" fill="#CC7829"/>
<path d="M98.7014 200.09H103.696L97.443 153.513H92.4744L98.7014 200.09Z" fill="#CC7829"/>
<path d="M49.9384 153.513H54.9096L49.2754 158.309L49.9384 153.513Z" fill="#A04833"/>
<path d="M97.443 153.513H92.4744L93.1374 158.309L97.443 153.513Z" fill="#A04833"/>
<path d="M48.9424 133.811C48.9424 133.811 43.3888 144.299 53.7446 149.33C64.1004 154.361 70.5536 156.182 70.8526 158.292C71.1516 160.402 69.2016 163.185 70.1038 171.573C71.006 179.961 72.5036 189.888 72.5036 189.888C72.5036 189.888 80.457 191.007 81.6582 189.888C82.8594 188.769 81.3592 174.727 82.6982 162.105C82.6982 162.105 85.2488 156.049 81.874 152.28L78.234 148.55C78.234 148.55 104.686 153.394 100.922 149.541C96.5848 145.091 83.6342 140.748 72.8 135.69L72.2384 133.811H48.9424Z" fill="#25BEEF"/>
<path d="M48.9424 133.811C48.9424 133.811 43.3888 144.299 53.7446 149.33C64.1004 154.361 70.5536 156.182 70.8526 158.292C71.1516 160.402 69.2016 163.185 70.1038 171.573C71.006 179.961 72.5036 189.888 72.5036 189.888C72.5036 189.888 80.457 191.007 81.6582 189.888C82.8594 188.769 81.3592 174.727 82.6982 162.105C82.6982 162.105 85.2488 156.049 81.874 152.28L79.014 149.764L72.228 133.823L48.9424 133.811Z" fill="#25BEEF"/>
<path d="M91.0519 197.842C88.6599 195.839 82.9399 193.322 81.6399 189.873C80.6441 190.803 74.9865 190.188 73.1015 189.953C73.1015 189.953 72.1863 192.668 72.1369 194.626C72.0875 196.583 72.1369 197.142 72.1369 197.142L75.6391 197.561V196.723C75.6391 196.723 77.6879 196.818 78.7903 197.842C79.8927 198.867 83.0413 200.218 86.4421 200.078C89.8429 199.938 93.4517 199.845 91.0519 197.842Z" fill="#D18165"/>
<path d="M86.4474 200.076C83.044 200.216 79.8928 198.864 78.793 197.84C77.6932 196.815 75.6418 196.721 75.6418 196.721V197.559L72.1396 197.14C72.1396 197.14 72.0902 196.58 72.1396 194.623C72.2006 193.588 72.3677 192.562 72.6388 191.557C72.878 190.631 73.1068 189.951 73.1068 189.951C74.9918 190.193 80.6468 190.798 81.6452 189.871C81.9189 190.554 82.3164 191.188 82.8204 191.746C82.9816 191.937 83.1584 192.123 83.3404 192.305C83.5224 192.487 83.6472 192.596 83.8058 192.741C84.0112 192.923 84.2192 193.104 84.4402 193.284C86.658 195.083 89.5206 196.566 91.052 197.84C93.4492 199.845 89.8482 199.94 86.4474 200.076Z" fill="#FFC065"/>
<path d="M86.4474 200.076C89.18 199.964 92.0375 199.882 91.8165 198.816C83.2755 200.725 79.8954 197.605 79.274 196.675C78.6526 195.745 77.1446 195.65 77.1446 195.65C74.3782 195.621 72.8989 194.802 72.1683 194.173C72.1553 194.325 72.1449 194.478 72.1423 194.623C72.0903 196.58 72.1423 197.14 72.1423 197.14L75.6445 197.559V196.721C75.6445 196.721 77.6933 196.815 78.7957 197.84C79.8981 198.864 83.0466 200.218 86.4474 200.076Z" fill="#7C2F13"/>
<path d="M83.3379 192.307C83.1741 192.409 83.0025 192.506 82.8335 192.596C82.6028 192.723 82.361 192.831 82.1107 192.92C81.8397 193.029 81.5534 193.102 81.2605 193.136C81.3647 192.865 81.5286 192.618 81.7415 192.409C81.9383 192.21 82.1673 192.041 82.4201 191.908C82.5487 191.841 82.6826 191.784 82.8205 191.736C82.9817 191.939 83.1585 192.126 83.3379 192.307Z" fill="#7C2F13"/>
<path d="M84.4376 193.293C84.3206 193.359 84.2036 193.427 84.084 193.487C83.8512 193.611 83.6097 193.72 83.3612 193.814C83.0896 193.921 82.8035 193.993 82.511 194.027C82.6155 193.757 82.7793 193.509 82.992 193.301C83.1888 193.102 83.4178 192.932 83.6706 192.799C83.7122 192.777 83.759 192.758 83.8032 192.739C84.0086 192.925 84.2166 193.107 84.4376 193.293Z" fill="#7C2F13"/>
<path d="M72.5035 189.876C72.7063 189.905 72.9117 189.931 73.1171 189.956L74.0609 190.065H74.0791C74.3911 190.098 74.7005 190.13 75.0125 190.159L75.3089 190.188C75.7353 190.227 76.1591 190.258 76.5829 190.29L77.1289 190.321H77.2277L77.7477 190.346L78.3093 190.36C78.4939 190.36 78.6759 190.36 78.8527 190.36C79.4863 190.367 80.1192 190.319 80.7429 190.215C77.1211 187.138 75.5169 184.181 74.7265 182.105C72.0953 175.202 73.6111 165.506 73.9751 163.161C74.3755 160.61 74.8201 158.954 73.8867 156.967C72.6699 154.373 70.2467 153.467 65.7227 151.416C61.6017 149.55 57.9227 147.882 55.2005 145.898C54.278 145.242 53.6187 144.316 53.3283 143.27C53.0379 142.223 53.1332 141.116 53.5989 140.126C54.2411 138.822 55.5203 137.752 57.9461 137.585C62.1142 137.251 66.126 135.949 69.6149 133.799H48.9423V133.821V133.84L48.9189 133.883V133.898L48.8825 133.976L48.8695 134.002L48.8357 134.075L48.8201 134.111L48.7759 134.206V134.232C48.7551 134.276 48.7343 134.322 48.7135 134.37L48.6979 134.409C48.6823 134.448 48.6641 134.487 48.6485 134.528L48.6251 134.584L48.5705 134.717L48.5523 134.763C48.5289 134.826 48.5029 134.891 48.4769 134.957L48.4613 134.998L48.3989 135.165L48.3755 135.238C48.3547 135.291 48.3365 135.344 48.3157 135.4L48.2923 135.468L48.2143 135.71C48.2134 135.721 48.2134 135.732 48.2143 135.744L48.1441 135.964L48.1207 136.049C48.1025 136.112 48.0817 136.175 48.0635 136.24L48.0401 136.325C48.0141 136.417 47.9907 136.509 47.9647 136.606C47.9387 136.701 47.9153 136.797 47.8919 136.894C47.8919 136.926 47.8919 136.957 47.8711 136.986C47.8555 137.059 47.8373 137.132 47.8217 137.207C47.8217 137.238 47.8087 137.272 47.8009 137.304C47.7827 137.393 47.7645 137.483 47.7489 137.573C47.7489 137.59 47.7489 137.606 47.7489 137.621C47.7307 137.728 47.7099 137.834 47.6943 137.943L47.6787 138.038C47.6657 138.118 47.6553 138.2 47.6423 138.28C47.6423 138.319 47.6423 138.355 47.6423 138.391C47.6284 138.482 47.618 138.571 47.6111 138.66C47.6111 138.684 47.6111 138.711 47.6111 138.735C47.6111 138.851 47.5903 138.977 47.5825 139.082V139.174L47.5669 139.44C47.5669 139.481 47.5669 139.52 47.5669 139.559C47.5669 139.648 47.5669 139.738 47.5669 139.83C47.5669 139.862 47.5669 139.893 47.5669 139.927C47.5669 140.046 47.5669 140.169 47.5669 140.29C47.5669 140.317 47.5669 140.344 47.5669 140.37C47.5669 140.467 47.5669 140.566 47.5669 140.663V140.784L47.5903 141.058C47.5903 141.094 47.5903 141.131 47.5903 141.167C47.6042 141.293 47.6198 141.419 47.6371 141.545V141.601C47.6527 141.707 47.6709 141.816 47.6917 141.925L47.7151 142.046C47.7333 142.138 47.7515 142.23 47.7723 142.323C47.7723 142.361 47.7905 142.4 47.8009 142.441C47.8295 142.567 47.8607 142.683 47.8971 142.819C48.1008 143.542 48.3958 144.239 48.7759 144.897C48.8435 145.016 48.9163 145.14 48.9917 145.253C49.0203 145.295 49.0463 145.338 49.0749 145.382C49.1659 145.52 49.2647 145.656 49.3661 145.794L49.4441 145.895C49.6584 146.175 49.8883 146.443 50.1331 146.699C50.1643 146.733 50.1981 146.765 50.2293 146.796C50.3567 146.93 50.4893 147.06 50.6297 147.189C51.4402 147.92 52.3502 148.548 53.3363 149.059C53.4897 149.141 53.6483 149.221 53.8095 149.301C54.7819 149.774 55.7179 150.219 56.6175 150.636C57.219 150.913 57.8031 151.181 58.3699 151.44L59.2071 151.818L60.8087 152.53L62.3063 153.186C65.1923 154.448 67.4309 155.41 68.9025 156.26C69.2356 156.447 69.556 156.654 69.8619 156.878C70.0287 157 70.1868 157.133 70.3351 157.275C70.6353 157.532 70.8394 157.871 70.9175 158.244C70.9551 158.519 70.9612 158.796 70.9357 159.072C70.8837 159.721 70.7121 160.47 70.5223 161.422C70.4963 161.548 70.4729 161.664 70.4469 161.807C70.4209 161.95 70.4027 162.049 70.3819 162.156C70.3611 162.262 70.3403 162.398 70.3169 162.524C69.983 164.539 69.8611 166.579 69.9529 168.616C69.9529 168.841 69.9737 169.071 69.9867 169.308C70.0231 170.001 70.0829 170.738 70.1687 171.525C70.2025 171.837 70.2363 172.155 70.2727 172.472V172.559C70.3455 173.196 70.4183 173.838 70.4937 174.48V174.56C70.5301 174.882 70.5691 175.204 70.6081 175.529C70.6575 175.931 70.7043 176.333 70.7537 176.74C70.8005 177.127 70.8499 177.515 70.8967 177.898V177.958C70.9643 178.477 71.0302 178.989 71.0943 179.496C71.1281 179.739 71.1593 179.981 71.1905 180.223V180.291C71.2191 180.516 71.2503 180.741 71.2789 180.962V181.049C71.3413 181.516 71.4028 181.972 71.4635 182.418V182.5C71.5259 182.955 71.5883 183.399 71.6455 183.825C71.8899 185.591 72.1057 187.095 72.2617 188.156C72.2617 188.221 72.2799 188.287 72.2877 188.35C72.2955 188.413 72.3059 188.473 72.3163 188.534C72.4021 189.117 72.4619 189.527 72.4905 189.716C72.4983 189.834 72.5035 189.876 72.5035 189.876Z" fill="#1A87C4"/>
<path d="M72.7844 146.593C83.1402 151.626 89.5934 153.443 89.8924 155.541C90.1914 157.638 88.2414 160.436 89.1436 168.824C90.0458 177.212 91.5434 187.138 91.5434 187.138C91.5434 187.138 99.4968 188.258 100.698 187.138C101.899 186.019 100.399 171.978 101.738 159.356C101.738 159.356 104.289 153.3 100.914 149.529L97.292 146.83" fill="#25BEEF"/>
<path d="M110.092 195.105C107.69 193.1 101.988 190.583 100.685 187.136C99.6893 188.064 94.0317 187.449 92.1467 187.216C92.1467 187.216 91.2315 189.931 91.1821 191.888C91.1327 193.846 91.1821 194.405 91.1821 194.405L94.6843 194.824V193.986C94.6843 193.986 96.7331 194.078 97.8355 195.105C98.9379 196.132 102.087 197.481 105.487 197.341C108.888 197.2 112.492 197.108 110.092 195.105Z" fill="#D18165"/>
<path d="M105.487 197.341C102.084 197.481 98.9326 196.13 97.8328 195.105C96.733 194.081 94.6816 193.986 94.6816 193.986V194.824L91.1794 194.405C91.1794 194.405 91.13 193.846 91.1794 191.888C91.2404 190.853 91.4076 189.825 91.6786 188.819C91.9178 187.897 92.1466 187.216 92.1466 187.216C94.0316 187.458 99.6866 188.064 100.685 187.136C100.959 187.819 101.356 188.453 101.86 189.011C102.021 189.202 102.198 189.389 102.38 189.57C102.562 189.752 102.687 189.861 102.846 190.004C103.051 190.188 103.259 190.37 103.48 190.549C105.698 192.346 108.56 193.831 110.092 195.105C112.489 197.108 108.888 197.2 105.487 197.341Z" fill="#FFC065"/>
<path d="M105.487 197.341C108.22 197.229 111.077 197.145 110.856 196.081C102.315 197.99 98.9353 194.87 98.3139 193.94C97.6925 193.01 96.1845 192.913 96.1845 192.913C93.4181 192.886 91.9387 192.065 91.2081 191.438C91.1951 191.591 91.1847 191.743 91.1821 191.888C91.1327 193.846 91.1821 194.405 91.1821 194.405L94.6843 194.824V193.986C94.6843 193.986 96.7331 194.078 97.8355 195.105C98.9379 196.132 102.087 197.481 105.487 197.341Z" fill="#7C2F13"/>
<path d="M102.378 189.57C102.214 189.672 102.042 189.769 101.873 189.859C101.643 189.986 101.401 190.094 101.15 190.183C100.88 190.292 100.593 190.364 100.3 190.396C100.407 190.13 100.571 189.887 100.781 189.682C100.979 189.484 101.208 189.316 101.46 189.183C101.588 189.115 101.722 189.058 101.86 189.011C102.021 189.202 102.198 189.389 102.378 189.57Z" fill="#7C2F13"/>
<path d="M103.48 190.549C103.363 190.614 103.246 190.68 103.126 190.743C102.894 190.867 102.652 190.976 102.404 191.07C102.132 191.177 101.846 191.248 101.553 191.283C101.657 191.012 101.821 190.764 102.034 190.556C102.231 190.357 102.46 190.188 102.713 190.055C102.756 190.031 102.8 190.01 102.846 189.992C103.048 190.188 103.256 190.37 103.48 190.549Z" fill="#7C2F13"/>
<path d="M72.7844 146.593C73.7568 147.064 74.6928 147.509 75.5924 147.928C76.1939 148.205 76.778 148.473 77.3448 148.729L78.182 149.11L79.7836 149.819C80.3036 150.047 80.8002 150.267 81.2812 150.476C84.1672 151.738 86.4058 152.702 87.8774 153.55C88.21 153.739 88.5303 153.946 88.8368 154.17C89.0036 154.291 89.1617 154.423 89.31 154.564C89.6094 154.822 89.8133 155.161 89.8924 155.533C89.93 155.808 89.9361 156.086 89.9106 156.362C89.8586 157.011 89.687 157.762 89.4972 158.714C89.4712 158.84 89.4478 158.956 89.4218 159.099C89.3958 159.242 89.3776 159.329 89.3568 159.448C89.336 159.566 89.3152 159.69 89.2918 159.816C88.9542 161.835 88.8296 163.88 88.92 165.922C88.92 166.15 88.9408 166.38 88.9538 166.617C88.9902 167.31 89.05 168.047 89.1358 168.834C89.1696 169.146 89.2034 169.464 89.2398 169.781V169.868C89.3126 170.505 89.3854 171.147 89.4608 171.789V171.866C89.4972 172.189 89.5362 172.513 89.5752 172.835C89.6246 173.237 89.6714 173.637 89.7208 174.046C89.7676 174.434 89.817 174.821 89.8638 175.204V175.265C89.9314 175.783 89.9973 176.296 90.0614 176.803C90.0952 177.045 90.1264 177.287 90.1576 177.53V177.6C90.1862 177.825 90.2174 178.048 90.246 178.271V178.358C90.3084 178.823 90.3708 179.281 90.4306 179.726V179.809C90.493 180.264 90.5554 180.707 90.6126 181.134C90.857 182.9 91.0728 184.401 91.2288 185.465C91.2288 185.53 91.247 185.596 91.2574 185.658C91.2678 185.721 91.273 185.782 91.2834 185.84C91.3692 186.426 91.429 186.836 91.4576 187.025C91.4706 187.105 91.4758 187.146 91.4758 187.146L92.0894 187.226C92.4066 187.267 92.7212 187.303 93.0332 187.337H93.0514C93.3634 187.371 93.6728 187.402 93.9848 187.432L94.2812 187.458C94.7076 187.497 95.1314 187.528 95.5552 187.558L96.1012 187.591H96.2C96.3716 187.591 96.5458 187.608 96.72 187.613L97.2816 187.63H97.8406C98.4742 187.637 99.1071 187.589 99.7308 187.485C96.109 184.409 94.5048 181.449 93.7144 179.375C91.0832 172.469 92.599 162.773 92.963 160.431C93.3634 157.88 93.808 156.224 92.8746 154.237C92.1128 152.615 90.883 151.653 88.9746 150.66C86.5242 149.406 83.8729 148.527 81.1226 148.058L72.7844 146.593Z" fill="#1A87C4"/>
<path d="M80.7742 190.299L79.6172 189.321L79.6822 189.26L80.7742 190.299Z" fill="white"/>
<path d="M77.5658 187.218C76.9294 186.473 76.3524 185.685 75.8394 184.862L76.1696 184.692C76.6355 185.523 77.1664 186.322 77.7582 187.08L77.5658 187.218Z" fill="white"/>
<path d="M74.5185 182.275C74.1619 181.379 73.8718 180.461 73.6501 179.528L74.2455 179.412C74.4316 180.328 74.6826 181.232 74.997 182.117L74.5185 182.275Z" fill="white"/>
<path d="M73.1301 176.708C73.0053 175.761 72.9273 174.812 72.8701 173.86L73.6501 173.836C73.6735 174.771 73.7281 175.706 73.8243 176.638L73.1301 176.708Z" fill="white"/>
<path d="M72.8337 171.004L72.9611 168.156L73.8555 168.216L73.6787 171.023L72.8337 171.004Z" fill="white"/>
<path d="M73.2341 165.314C73.3667 164.374 73.4785 163.43 73.6293 162.492L74.6017 162.63C74.4353 163.558 74.3131 164.488 74.1675 165.418L73.2341 165.314Z" fill="white"/>
<path d="M73.9622 159.738C73.9762 159.299 73.9387 158.86 73.8504 158.428C73.7603 158 73.6163 157.584 73.4214 157.188L74.3522 156.798C74.5746 157.263 74.7395 157.751 74.8436 158.251C74.943 158.748 74.9849 159.253 74.9684 159.758L73.9622 159.738Z" fill="white"/>
<path d="M71.7339 155.122C70.9677 154.557 70.1429 154.065 69.2717 153.654L69.7553 152.801C70.6955 153.24 71.582 153.772 72.3995 154.388L71.7339 155.122Z" fill="white"/>
<path d="M66.5677 152.397L63.8325 151.152L64.2771 150.311L67.0097 151.541L66.5677 152.397Z" fill="white"/>
<path d="M61.1103 149.87L58.4297 148.49L58.9029 147.729L61.5627 149.056L61.1103 149.87Z" fill="white"/>
<path d="M55.8401 146.932L55.2213 146.496C55.005 146.35 54.7984 146.193 54.6025 146.024C54.2021 145.674 53.8572 145.272 53.5781 144.832L54.3035 144.425C54.55 144.794 54.8511 145.129 55.1979 145.421C55.3758 145.57 55.5643 145.709 55.7621 145.835L56.3627 146.247L55.8401 146.932Z" fill="white"/>
<path d="M52.7981 141.911C52.8538 140.886 53.254 139.904 53.9421 139.103L54.4933 139.513C53.9244 140.212 53.6036 141.058 53.5755 141.935L52.7981 141.911Z" fill="white"/>
<path d="M56.6799 137.582C56.9373 137.527 57.1977 137.485 57.4599 137.456C57.7199 137.425 57.9799 137.415 58.2399 137.388L59.7349 137.253L59.8129 137.723L58.2893 137.912C58.0293 137.946 57.7875 137.963 57.5483 137.996C57.3083 138.03 57.0705 138.076 56.8359 138.135L56.6799 137.582Z" fill="white"/>
<path d="M62.6809 136.688C63.6519 136.445 64.6069 136.149 65.5409 135.802L65.6371 136.01C64.706 136.401 63.751 136.74 62.7771 137.025L62.6809 136.688Z" fill="white"/>
<path d="M68.2993 134.617C68.7569 134.39 69.2093 134.15 69.6435 133.891C69.2249 134.179 68.7881 134.443 68.3435 134.697L68.2993 134.617Z" fill="white"/>
<path d="M58.6118 82.5372C58.6118 82.5372 55.8402 82.6656 55.6842 85.628C55.5282 88.5904 53.1414 87.7595 53.1414 87.7595C53.1414 87.7595 54.7404 90.0267 57.941 87.6723C61.1416 85.3179 61.5654 85.0079 61.5654 85.0079C61.5654 85.0079 61.5654 82.6559 58.8198 82.5251" fill="black"/>
<path d="M57.3535 88.7454C57.3535 88.7454 58.0035 96.0847 61.1209 99.2675C64.2383 102.45 61.1781 88.5007 61.1781 88.5007L57.3535 88.7454Z" fill="black"/>
<path d="M67.3609 102.831C67.1997 102.295 67.8809 100.987 68.2969 100.234C65.4759 100.639 62.1167 98.7807 60.3669 95.4961C60.261 95.5497 60.1471 95.5881 60.0289 95.61C60.0289 95.61 59.7689 102.443 58.1673 102.528C56.3083 104.015 50.2347 109.044 51.4697 111.376C52.5097 113.333 58.1153 112.323 66.4769 110.819C67.2901 110.702 68.0485 110.365 68.6583 109.85C70.4133 108.29 69.9323 105.49 69.6853 104.858C69.3655 104.032 67.6001 103.606 67.3609 102.831Z" fill="#EA9D7D"/>
<path d="M61.2638 103.608C60.1562 101.37 62.4832 100.898 62.4832 100.898L62.4676 100.866C64.0068 101.835 65.7254 102.254 67.2698 101.973C67.3426 101.961 67.4128 101.944 67.483 101.927C67.7045 101.338 67.9766 100.766 68.2968 100.217C65.4758 100.622 62.2778 98.5893 60.528 95.3048C60.4857 95.3941 60.4153 95.4694 60.3263 95.5208C60.2372 95.5723 60.1335 95.5974 60.0288 95.593C60.0288 95.593 59.9794 96.8623 59.7922 98.3156C59.5478 100.234 59.0694 102.477 58.1646 102.525C55.6426 104.519 49.5612 109.589 50.7806 111.839C52 114.089 60.3512 113.292 66.4742 110.817C67.4076 110.439 68.1694 110.068 68.7232 109.782C64.9012 110.175 62.2596 105.609 61.2638 103.608Z" fill="#D18165"/>
<path d="M63.9315 82.5978C60.7075 83.184 58.7315 87.0087 59.1865 91.4486H59.1605C58.2791 91.6085 57.7591 92.6597 58.0009 93.8151C58.2427 94.9705 59.1501 95.7529 60.0289 95.6003C60.1289 95.5956 60.2267 95.5717 60.3162 95.53C60.4057 95.4883 60.485 95.4298 60.5489 95.358C62.3403 98.7177 65.6267 100.714 68.4867 100.202C72.0383 99.5582 73.2941 95.4767 72.2489 90.4797C71.2037 85.4827 67.4805 81.9607 63.9315 82.5978Z" fill="#EA9D7D"/>
<path d="M67.4414 96.6782C68.4288 96.7396 69.4104 96.8642 70.3794 97.0512C70.3794 97.0512 70.2806 95.7529 69.1184 95.5979C67.9562 95.4428 67.4414 96.6782 67.4414 96.6782Z" fill="#BE3E5F"/>
<path d="M69.9399 90.1648C70.0543 90.6493 70.1583 91.1337 70.3013 91.5988C70.3648 91.8193 70.4574 92.0317 70.5769 92.231C70.6263 92.3109 70.7147 92.4247 70.7875 92.5265C70.8603 92.6282 70.9357 92.7445 71.0033 92.8607C71.1672 93.1115 71.2511 93.4005 71.2451 93.694C71.2277 93.8717 71.1407 94.0373 71.0007 94.1591C70.8761 94.2624 70.7261 94.3356 70.5639 94.3722C70.0136 94.4689 69.4457 94.4314 68.9155 94.2632C69.4304 94.241 69.9404 94.1596 70.4339 94.021C70.5264 93.985 70.6104 93.9323 70.6809 93.866C70.7322 93.8121 70.7583 93.7416 70.7537 93.6698C70.7327 93.466 70.6616 93.2696 70.5457 93.0957C70.4885 92.994 70.4235 92.8947 70.3559 92.7905C70.2883 92.6863 70.2181 92.5967 70.1453 92.4587C70.022 92.2154 69.9413 91.9554 69.9061 91.6884C69.8279 91.1822 69.8393 90.6675 69.9399 90.1648Z" fill="#D18165"/>
<path d="M65.2209 89.5132C65.7437 89.4988 66.2649 89.4519 66.7809 89.3727C67.0307 89.3315 67.2767 89.2724 67.5167 89.1959C67.7637 89.1257 67.9925 89.0167 68.2551 88.9174C68.1011 89.1389 67.8937 89.3238 67.6493 89.4575C67.4042 89.5941 67.1347 89.6884 66.8537 89.7361C66.5748 89.7824 66.2898 89.7889 66.0087 89.7554C65.7317 89.7233 65.4641 89.641 65.2209 89.5132Z" fill="black"/>
<path d="M71.76 88.7648C71.8016 88.881 71.8432 89.007 71.8822 89.1184H71.8458C71.5669 89.1659 71.2818 89.1725 71.0008 89.1378C70.7217 89.1073 70.452 89.025 70.2078 88.8956C70.7277 88.8844 71.2463 88.8407 71.76 88.7648Z" fill="black"/>
<path d="M71.578 91.996C71.4742 92.0145 71.3669 91.9941 71.2792 91.9392C71.1915 91.8843 71.1307 91.7994 71.11 91.7029L70.8864 90.6372C70.8733 90.5883 70.871 90.5375 70.8797 90.4878C70.8884 90.4381 70.9078 90.3906 70.9369 90.3481C70.9659 90.3056 71.0039 90.2691 71.0486 90.2408C71.0933 90.2125 71.1437 90.193 71.1968 90.1834C71.2499 90.1739 71.3045 90.1745 71.3573 90.1852C71.4101 90.196 71.4599 90.2167 71.5039 90.246C71.5478 90.2753 71.5849 90.3126 71.6128 90.3557C71.6408 90.3988 71.659 90.4468 71.6664 90.4967L71.89 91.56C71.9099 91.6563 71.8884 91.756 71.83 91.8376C71.7716 91.9192 71.6811 91.9761 71.578 91.996Z" fill="black"/>
<path d="M67.5687 92.2237C67.465 92.2422 67.3576 92.2218 67.2699 92.1669C67.1823 92.112 67.1214 92.0271 67.1007 91.9306L66.8797 90.8648C66.8658 90.7709 66.8911 90.6756 66.9503 90.5985C67.0096 90.5214 67.0983 90.4683 67.1983 90.4503C67.2982 90.4323 67.4018 90.4507 67.4876 90.5017C67.5734 90.5527 67.635 90.6323 67.6597 90.7243L67.8833 91.7877C67.8935 91.8356 67.8935 91.8849 67.8831 91.9327C67.8728 91.9806 67.8525 92.0261 67.8233 92.0666C67.794 92.1071 67.7565 92.1419 67.7128 92.1688C67.6691 92.1958 67.6202 92.2144 67.5687 92.2237Z" fill="black"/>
<path d="M59.1291 92.4756C59.0436 92.8749 59.0374 93.2854 59.1109 93.6867C59.1539 93.8738 59.2193 94.0558 59.3059 94.2293C59.3449 94.3238 59.4073 94.411 59.4541 94.5103C59.5009 94.6096 59.5711 94.7016 59.6205 94.8179C59.4982 94.7823 59.3805 94.7344 59.2695 94.675C59.1607 94.6092 59.0604 94.532 58.9705 94.4449C58.7837 94.2607 58.6558 94.0317 58.6011 93.7835C58.5464 93.5353 58.5672 93.2778 58.6611 93.04C58.749 92.8104 58.9129 92.6128 59.1291 92.4756Z" fill="#D18165"/>
<path d="M59.1603 91.4413C59.1603 91.4413 60.6839 96.4335 61.9397 98.0903C63.0967 99.6212 65.2677 101.135 68.6451 100.806C69.2856 100.746 69.894 100.515 70.3975 100.142C71.3855 99.3983 72.8025 97.8336 72.5321 95.0698C72.5321 95.0698 71.6689 94.1639 69.3523 94.2099C67.0357 94.2559 66.4455 94.8082 66.0477 95.2297C65.6499 95.6511 63.8819 97.664 62.9927 97.0342C62.1035 96.4045 59.9741 92.3375 60.9803 90.1479C61.9865 87.9582 63.1461 88.8617 61.9163 86.3692C61.9163 86.3692 63.6765 85.7685 66.7523 86.3958C67.385 86.5344 68.0502 86.4544 68.6243 86.1706C69.0845 85.9283 69.5005 85.582 69.4615 85.0927C70.2812 86.0451 70.9793 87.0832 71.5415 88.1859C71.5415 88.1859 73.0287 86.0761 70.9487 84.3248C69.1807 82.8376 68.6243 81.9462 68.0341 81.7379C66.8589 81.3237 66.3675 81.9801 65.2079 82.1691C64.0483 82.358 63.8325 81.6725 62.4831 82.341C61.1337 83.0096 60.5617 84.0172 60.1041 84.9764C60.1041 84.9764 58.7807 84.8069 57.5717 87.0183C57.0491 87.9993 56.8619 92.9964 59.1603 91.4413ZM67.0799 95.2757C67.3971 94.9947 68.3045 94.5345 69.6253 94.7525C70.8863 94.9584 71.0553 95.7214 71.2503 96.3003C71.3497 96.5786 71.3799 96.8743 71.3387 97.165C71.2529 97.7464 70.9331 97.9595 70.3767 98.0152C69.6929 98.0855 69.5421 97.1529 69.0481 97.2014C68.5541 97.2498 68.6269 98.0419 67.4101 98.0903C66.1933 98.1388 66.2609 96.0048 67.0799 95.2757Z" fill="black"/>
<path d="M95.2017 129.976L97.8849 130.076C97.8849 130.076 98.4699 129.645 99.2603 129.083C100.758 128.017 102.999 126.486 103.459 126.513C104.164 126.551 105.388 127.029 102.341 129.213L102.365 129.233C102.466 129.305 102.937 129.594 104.14 129.662C105.526 129.741 110.193 130.037 110.952 130.301C111.363 130.446 112.286 131.599 105.368 131.372C105.313 131.368 105.259 131.376 105.208 131.395C105.157 131.414 105.111 131.443 105.074 131.48C105.036 131.517 105.008 131.561 104.991 131.609C104.974 131.657 104.968 131.709 104.975 131.759C104.998 131.88 105.092 131.984 105.342 132.001C105.968 132.038 111.379 132.123 111.285 133.033C111.218 133.695 109.801 133.532 105.058 133.338C105.058 133.338 104.304 133.518 104.905 133.879C105.113 134.005 110.474 134.47 110.737 134.867C110.999 135.264 111.688 135.911 103.646 135.09C103.646 135.09 103.503 135.165 104.205 135.548C104.949 135.952 107.149 136.495 107.71 137.258C108.272 138.021 106.639 137.417 102.51 136.124L96.7201 135.436C92.8903 135.94 78.5591 137.078 74.9997 133.634C71.6639 130.408 69.8699 118.858 69.8699 118.858L78.0261 118.602L81.4425 127.213C81.5546 127.494 81.7461 127.743 81.9968 127.932C82.2474 128.121 82.5481 128.244 82.8673 128.288L95.6931 130.013" fill="#EA9D7D"/>
<path d="M72.9509 118.774L75.8577 119.173C75.8577 119.173 75.0985 128.45 77.7817 130.316C80.4649 132.181 84.2089 133.862 100.246 133.92C105.43 133.937 108.727 134.404 110.82 135.003C111.036 135.376 110.838 135.833 103.646 135.099C103.646 135.099 103.503 135.175 104.205 135.557C104.949 135.962 107.149 136.504 107.71 137.267C108.272 138.03 106.639 137.427 102.51 136.134L96.7201 135.436C92.8903 135.94 78.5591 137.078 74.9997 133.634C71.6639 130.408 69.8699 118.858 69.8699 118.858L72.9509 118.774Z" fill="#D18165"/>
<path d="M102.424 129.228C102.424 129.228 101.301 133.147 97.4609 132.064" stroke="#2F170B" stroke-width="2" stroke-miterlimit="10"/>
<path d="M27.8486 155.57H50.2658C50.5161 155.57 50.7639 155.616 50.9951 155.705C51.2263 155.794 51.4364 155.925 51.6134 156.09C51.7904 156.255 51.9307 156.45 52.0265 156.666C52.1223 156.881 52.1716 157.112 52.1716 157.345V168.611H25.9402V157.345C25.9402 157.112 25.9896 156.881 26.0855 156.665C26.1814 156.45 26.3221 156.254 26.4993 156.089C26.6765 155.924 26.8869 155.793 27.1185 155.704C27.35 155.615 27.5981 155.569 27.8486 155.57Z" fill="#FF5061"/>
<path d="M25.9429 168.611V166.038L28.7925 168.611H25.9429Z" fill="#FC7E85"/>
<path d="M52.1691 168.611V166.038L49.3169 168.611H52.1691Z" fill="#FC7E85"/>
<path d="M25.9402 157.345V157.992H52.169V157.345C52.169 157.112 52.1197 156.881 52.0239 156.666C51.9281 156.45 51.7878 156.255 51.6108 156.09C51.4338 155.925 51.2237 155.794 50.9925 155.705C50.7613 155.616 50.5135 155.57 50.2632 155.57H27.8486C27.3429 155.57 26.8579 155.757 26.5001 156.09C26.1422 156.422 25.9409 156.874 25.9402 157.345Z" fill="#FC7E85"/>
<path d="M95.3445 129.976V135.349" stroke="#2F170B" stroke-width="6" stroke-linecap="round" stroke-linejoin="round"/>
<path d="M78.9984 117.904L76.3204 110.071C75.7155 108.255 74.5377 106.651 72.9404 105.468C72.5326 105.165 72.0906 104.903 71.6222 104.688C71.5818 104.67 71.5372 104.663 71.4925 104.665C71.4479 104.668 71.4048 104.682 71.3674 104.705C71.33 104.728 71.2996 104.759 71.2791 104.796C71.2586 104.833 71.2487 104.874 71.2504 104.916L71.76 119.173H78C78.1651 119.175 78.3281 119.14 78.4756 119.071C78.6232 119.002 78.751 118.901 78.8485 118.777C78.9461 118.653 79.0106 118.509 79.0366 118.357C79.0627 118.206 79.0496 118.05 78.9984 117.904Z" fill="#25BEEF"/>
<path d="M71.3647 107.941L71.7599 119.173H75.8627C75.9563 116.448 75.7379 113.435 74.0297 110.088C72.8649 107.806 72.1915 107.692 71.9081 107.704C71.7022 107.719 71.5092 107.804 71.3647 107.941Z" fill="#1A87C4"/>
<path d="M33.7999 151.704C33.9189 151.267 33.9826 150.819 33.9897 150.369C34.0495 146.6 34.4343 132.215 36.7665 125.662C37.5075 123.572 44.3221 112.936 44.3221 112.936L54.0565 114.855L45.4999 128.136C45.1198 128.724 44.84 129.364 44.6705 130.032L39.4419 150.776C39.37 151.061 39.3675 151.357 39.4345 151.643C39.5015 151.929 39.6364 152.197 39.8293 152.428C40.9291 153.743 43.1079 156.415 43.0715 156.907C43.0247 157.563 42.5047 158.702 40.1777 155.848C40.1777 155.848 39.7799 156.231 39.6863 157.522C39.5927 158.813 39.3951 163.781 38.9557 163.863C38.5163 163.946 37.5283 165.13 37.8585 158.377C37.8585 158.377 37.2137 158.043 37.1721 158.619C37.1305 159.196 36.7717 164.745 36.0281 164.149C35.2845 163.553 35.5081 162.761 35.7369 158.336C35.7369 158.336 35.2507 157.977 35.1571 158.19C35.0635 158.404 34.5305 163.645 34.0599 163.616C33.5893 163.587 32.9367 164.498 33.8649 157.011C33.8649 157.011 33.6049 156.885 33.3111 157.636C33.0173 158.387 31.8811 161.686 31.5119 160.785C31.1427 159.884 31.3481 159.787 32.7625 155.957L33.7999 151.704Z" fill="#EA9D7D"/>
<path d="M54.0619 114.852L51.7661 114.399C50.0501 116.427 47.9181 117.902 45.1387 121.69C42.9755 124.64 41.5741 127.646 40.9527 128.916C39.2471 132.394 39.5929 134.169 38.4567 142.751C37.7729 147.906 37.4323 150.481 37.0735 151.83C37.0735 151.83 34.5021 161.482 35.7579 163.873C35.8162 163.984 35.9061 164.078 36.0179 164.144C36.7615 164.74 37.1177 159.198 37.1619 158.614C37.2061 158.031 37.8483 158.372 37.8483 158.372C37.5181 165.125 38.5087 163.943 38.9455 163.858C39.3823 163.774 39.5825 158.83 39.6761 157.527C39.7697 156.236 40.1675 155.853 40.1675 155.853C42.4945 158.706 43.0145 157.568 43.0613 156.912C43.0977 156.427 40.9189 153.748 39.8191 152.433C39.6262 152.202 39.4913 151.934 39.4243 151.648C39.3572 151.362 39.3598 151.066 39.4317 150.781L44.6603 130.037C44.8325 129.366 45.1158 128.725 45.5001 128.136L54.0619 114.852Z" fill="#D18165"/>
<path d="M71.331 135.676H51.181C50.8653 135.676 50.5533 135.612 50.2664 135.489C49.9795 135.366 49.7244 135.187 49.5185 134.964C49.3127 134.741 49.1609 134.48 49.0736 134.197C48.9863 133.914 48.9655 133.617 49.0126 133.326L53.768 104.088L58.1048 102.557C59.8546 106.013 65.8086 106.692 67.5272 103.223L71.24 104.541C71.8817 104.685 72.4488 105.034 72.843 105.528C73.2371 106.021 73.4335 106.627 73.398 107.241L73.359 108.331C73.0557 117.114 72.7498 125.896 72.4412 134.676C72.4386 134.748 72.4178 135.102 71.331 135.676Z" fill="#25BEEF"/>
<path d="M40.6147 118.73C40.4988 118.657 40.3998 118.564 40.3237 118.454C40.2476 118.345 40.1958 118.223 40.1716 118.095C40.1473 117.967 40.151 117.835 40.1825 117.708C40.2139 117.582 40.2725 117.462 40.3547 117.357L47.6867 107.871C47.6867 107.871 50.2867 104.751 53.7551 104.088L55.7363 113.714L48.7293 123.645C48.7034 123.681 48.6699 123.712 48.6309 123.737C48.5919 123.761 48.5481 123.777 48.502 123.785C48.456 123.794 48.4086 123.793 48.3628 123.784C48.317 123.775 48.2736 123.757 48.2353 123.732L40.6147 118.73Z" fill="#25BEEF"/>
<path d="M48.7423 123.635L55.7025 113.781L55.6869 113.687C55.6569 113.507 55.5776 113.338 55.4565 113.196C55.3355 113.053 55.1768 112.943 54.9961 112.874C54.8155 112.806 54.6188 112.782 54.4255 112.806C54.2321 112.83 54.0486 112.899 53.8929 113.009C52.5669 113.949 50.8691 115.571 49.3143 117.056C47.6893 118.607 45.9499 120.271 45.1387 121.69L48.2587 123.722C48.3354 123.77 48.4292 123.787 48.5196 123.771C48.6101 123.755 48.6901 123.706 48.7423 123.635Z" fill="#1A87C4"/>
<path d="M72.4412 134.676C70.9124 134.174 66.9396 134.155 60.9206 132.389C55.2708 130.73 54.132 129.385 53.6198 128.421C52.4108 126.154 53.2012 123.281 53.5262 122.099C54.1086 119.978 54.275 119.166 55.445 116.475C55.8376 115.571 55.965 113.384 55.445 113.205C54.8392 112.997 53.1258 115.433 51.3734 118.815L49.0126 133.326C48.9655 133.617 48.9863 133.914 49.0736 134.197C49.1609 134.48 49.3127 134.741 49.5185 134.964C49.7244 135.187 49.9795 135.366 50.2664 135.489C50.5533 135.612 50.8653 135.676 51.181 135.676H71.331C71.6193 135.676 71.8963 135.572 72.1035 135.385C72.3106 135.198 72.4318 134.944 72.4412 134.676Z" fill="#1A87C4"/>
<path d="M43.4773 155.57H40.3417C40.1907 155.854 40.1183 156.168 40.1311 156.485C40.1311 157.074 40.9735 157.662 40.9735 157.662C40.9735 157.662 42.6817 157.968 43.0795 157.793C43.4773 157.619 43.4773 155.57 43.4773 155.57Z" fill="#FC7E85"/>
<path d="M56.2251 113.018H61.3731C61.6603 113.018 61.8931 112.802 61.8931 112.534V111.304C61.8931 111.036 61.6603 110.819 61.3731 110.819H56.2251C55.9379 110.819 55.7051 111.036 55.7051 111.304V112.534C55.7051 112.802 55.9379 113.018 56.2251 113.018Z" fill="#E3EAF3"/>
<path d="M145.275 145.287C145.275 148.715 146.975 151.827 148.213 152.881C149.089 153.632 149.287 154.858 149.326 155.509C149.348 155.954 149.428 156.395 149.562 156.822C149.913 157.883 150.701 159.52 152.24 159.426C153.371 159.356 153.946 158.941 155.001 158.656C156.057 158.37 157.693 157.423 157.693 157.423C157.336 155.541 156.091 150.783 157.121 149.739C156.341 149.519 155.8 149.049 155.09 148.557C154.861 148.402 154.637 148.233 154.416 148.073C154.24 147.925 154.065 147.777 153.896 147.625C153.678 147.426 153.457 147.225 153.239 147.012C151.055 144.863 149.206 142.051 147.662 140.571C145.226 138.234 145.283 141.86 145.275 145.287Z" fill="#EA9D7D"/>
<path d="M232.024 135.942C232.024 135.942 195.829 137.732 192.678 138.103C189.527 138.474 156.762 149.621 156.762 149.621C156.762 149.621 155.613 154.465 157.542 157.512C157.542 157.512 184.244 153.055 190.515 151.682L201.919 149.415C201.919 149.415 228.02 155.814 232.861 154.538C235.197 153.924 237.415 152.972 239.434 151.718C239.434 151.718 230.36 140.998 232.024 135.942Z" fill="#FFC065"/>
<path d="M232.861 154.538C235.197 153.924 237.415 152.972 239.434 151.718C239.434 151.718 230.36 140.998 232.024 135.942L230.758 136.005C230.589 137.824 229.95 139.577 228.896 141.116C225.872 145.542 220.519 147.012 219.255 147.324C212.755 148.928 209.734 145.721 201.942 145.387C200.654 145.357 199.366 145.413 198.086 145.554C192.444 145.969 186.882 147.057 181.537 148.792C176.678 150.294 169.057 153.433 156.421 153.036C156.439 154.489 156.681 156.185 157.531 157.512C157.531 157.512 184.233 153.055 190.505 151.682L200.845 151.098C200.845 151.098 228.02 155.814 232.861 154.538Z" fill="#FFAA39"/>
<path d="M156.494 154.296C156.494 154.296 176.836 150.178 185.936 148.112C188.082 147.624 190.262 147.279 192.46 147.08L193.76 146.961C197.324 146.639 200.917 146.699 204.466 147.14C212.641 148.158 227.908 149.851 231.384 148.812C234.192 147.971 234.309 147.816 235.804 146.818" stroke="white" stroke-width="3" stroke-miterlimit="10"/>
<path d="M254.155 100.144C253.801 100.494 253.478 100.869 253.188 101.266C251.482 103.579 251.501 104.173 248.838 104.873C248.838 104.873 246.639 105.803 248.63 106.914C248.63 106.914 248.63 107.234 248.11 108C247.608 108.726 244.247 111.735 250.463 113.953C250.578 113.995 250.68 114.061 250.762 114.146C250.844 114.231 250.903 114.333 250.935 114.443C250.966 114.554 250.97 114.67 250.944 114.782C250.919 114.893 250.865 114.998 250.788 115.087L245.274 120.401L252.294 124.546L259.852 113.2C259.852 113.2 258.209 111.8 257.969 111.655C257.969 111.655 261.76 110.107 260.151 108.729C258.541 107.35 257.205 108.712 257.205 108.712L256.565 108.227L259.828 103.468L254.155 100.144Z" fill="#EA9D7D"/>
<path d="M259.847 113.602L258.256 115.54C258.256 115.54 257.834 113.295 257.543 112.328C257.506 112.204 257.516 112.072 257.572 111.954C257.628 111.836 257.726 111.739 257.85 111.681C258.952 111.161 261.435 109.811 260.164 108.724C258.893 107.636 257.369 108.845 256.755 109.419C256.679 109.492 256.576 109.536 256.467 109.542C256.358 109.549 256.25 109.517 256.165 109.453C256.08 109.389 256.023 109.297 256.006 109.196C255.988 109.095 256.012 108.991 256.072 108.906L257.996 106.173C258.238 105.82 258.403 105.425 258.481 105.012C258.559 104.599 258.548 104.176 258.45 103.766C258.352 103.357 258.167 102.97 257.908 102.627C257.648 102.285 257.318 101.993 256.937 101.77L255.029 100.651C254.78 100.506 254.482 100.454 254.193 100.504C253.905 100.553 253.646 100.702 253.469 100.919C253.76 99.5872 255.143 99.0229 255.617 98.8388C258.594 97.6737 261.659 99.5824 262.325 99.9966C264.145 101.14 266.292 103.388 265.764 104.875C265.634 105.246 265.276 106.205 265.276 106.205C265.276 106.205 266.16 107.094 266.225 107.77C266.342 109.022 264.425 110.465 262.044 112.246C260.905 113.086 260.26 113.445 259.847 113.602Z" fill="#000001"/>
<path d="M255.32 104.398C255.013 104.308 254.723 104.172 254.462 103.996C254.2 103.826 253.96 103.627 253.747 103.405C253.532 103.185 253.348 102.941 253.199 102.678C253.046 102.41 252.949 102.117 252.913 101.816C253.144 102.036 253.331 102.254 253.537 102.462L254.135 103.09C254.54 103.506 254.938 103.913 255.32 104.398Z" fill="#000001"/>
<path d="M253.313 104.209L252.351 105.592" stroke="#000001" stroke-width="3" stroke-miterlimit="10" stroke-linecap="round"/>
<path d="M249.153 109.421C249.067 109 248.373 107.883 248.157 107.929L248.11 108C247.777 108.396 247.469 108.811 247.19 109.242C247.752 109.778 249.156 109.434 249.153 109.421Z" fill="#BE3E5F"/>
<path d="M258.484 108.952C258.656 108.9 258.838 108.884 259.018 108.904C259.197 108.924 259.37 108.98 259.524 109.068C259.609 109.125 259.678 109.201 259.723 109.289C259.769 109.377 259.79 109.474 259.784 109.572C259.755 109.75 259.674 109.918 259.55 110.056C259.325 110.317 259.041 110.529 258.718 110.676C258.56 110.754 258.39 110.809 258.214 110.841C258.039 110.882 257.853 110.861 257.694 110.78C257.858 110.813 258.029 110.794 258.18 110.725C258.334 110.67 258.48 110.599 258.617 110.514C258.894 110.352 259.139 110.147 259.342 109.908C259.442 109.806 259.51 109.68 259.54 109.545C259.547 109.482 259.538 109.419 259.514 109.36C259.49 109.301 259.452 109.249 259.402 109.206C259.134 109.03 258.812 108.94 258.484 108.952Z" fill="#D18165"/>
<path d="M246.914 120.988C248.144 121.472 253.136 118.006 254.696 116.494C256.256 114.983 255.549 114.387 255.549 114.387C254.041 114.828 250.674 114.067 250.674 114.067C250.833 114.188 250.935 114.363 250.957 114.554C250.979 114.744 250.919 114.935 250.791 115.085L245.851 119.75C246.095 120.297 246.438 120.799 246.914 120.988Z" fill="#D18165"/>
<path d="M230.063 130.41C235.557 122.741 238.152 120.687 242.257 118.614C244.471 117.515 246.864 116.764 249.34 116.393C248.399 117.58 247.746 118.052 247.52 118.553C247.166 119.304 250.476 119.244 256.03 119.144C255.829 119.533 255.693 119.948 255.627 120.375C255.589 120.846 255.65 121.32 255.806 121.77C256.386 123.532 256.321 125.424 255.619 127.147C255.119 128.381 254.548 129.588 253.908 130.764C252.253 133.699 250.323 136.491 248.139 139.108C246.059 141.557 244.499 142.923 242.744 146.041C241.743 147.826 241.769 148.245 241.228 148.628C239.551 149.807 235.115 148.746 223.272 139.513C223.135 139.406 223.028 139.27 222.96 139.116C222.893 138.962 222.866 138.794 222.884 138.629C222.901 138.463 222.962 138.304 223.06 138.165C223.159 138.026 223.292 137.912 223.449 137.832C226.039 135.996 228.256 132.936 230.063 130.41Z" fill="#FFC065"/>
<path d="M230.563 144.982L236.249 148.567C237.294 149.15 238.394 149.643 239.535 150.04C241.308 148.625 247.091 142.02 247.372 141.487L253.255 130.204C253.967 128.937 254.138 127.466 253.734 126.086C253.144 124.11 251.599 121.799 247.574 122.274L245.877 122.758C243.463 123.462 241.44 125.017 240.24 127.092L235.061 135.535C234.587 136.18 234.021 136.114 234.203 136.877C234.271 137.086 234.279 137.307 234.223 137.519C233.011 139.959 231.383 142.2 229.403 144.156C229.801 144.444 230.188 144.718 230.563 144.982Z" fill="#FFAA39"/>
<path d="M215.311 159.85C215.669 159.546 216.062 159.282 216.484 159.062C220.022 157.234 233.449 150.12 238.55 145.111C240.175 143.512 247.018 132.893 247.018 132.893L240.604 125.805L232.102 139.128C231.724 139.717 231.25 140.249 230.698 140.704L213.538 154.797C213.303 154.991 213.024 155.133 212.722 155.213C212.42 155.293 212.103 155.309 211.793 155.26C210.031 154.979 206.474 154.453 206.027 154.712C205.426 155.061 204.594 156.027 208.395 156.589C208.395 156.589 208.221 157.096 207.043 157.784C205.865 158.471 201.258 160.981 201.388 161.378C201.518 161.775 200.868 163.149 207.108 159.683C207.108 159.683 207.727 160.053 207.194 160.363C206.661 160.673 201.588 163.587 202.514 163.917C203.44 164.246 204.074 163.696 208.143 161.412C208.143 161.412 208.712 161.642 208.554 161.819C208.395 161.996 203.692 164.912 203.941 165.283C204.191 165.653 203.637 166.622 210.28 162.323C210.28 162.323 210.525 162.48 209.953 163.074C209.381 163.667 206.799 166.162 207.826 166.036C208.853 165.91 208.848 165.699 211.801 162.73L215.329 159.855L215.311 159.85Z" fill="#EA9D7D"/>
<path d="M243.253 139.38C243.384 139.441 243.527 139.477 243.673 139.487C243.82 139.497 243.967 139.48 244.106 139.436C244.245 139.393 244.373 139.324 244.483 139.234C244.594 139.144 244.684 139.035 244.748 138.912L250.552 127.842C250.559 127.832 250.565 127.821 250.57 127.809C252.005 124.684 248.828 121.428 245.344 122.441L244.14 122.79C241.945 123.429 240.104 124.84 239.008 126.723L234.328 134.789C234.304 134.83 234.288 134.874 234.283 134.921C234.278 134.967 234.283 135.013 234.298 135.057C234.313 135.101 234.337 135.142 234.37 135.178C234.402 135.213 234.442 135.241 234.486 135.262L243.253 139.38Z" fill="#FFC065"/>
<path d="M250.604 127.823L250.793 127.445L250.887 127.251L250.947 127.048C250.986 126.91 251.033 126.774 251.064 126.634C251.095 126.493 251.098 126.35 251.113 126.205C251.129 126.062 251.129 125.917 251.113 125.774C251.111 125.628 251.095 125.483 251.064 125.34L250.968 124.909C250.923 124.769 250.861 124.633 250.809 124.495C250.567 123.942 250.202 123.442 249.738 123.029C249.275 122.616 248.722 122.3 248.118 122.099C247.505 121.899 246.852 121.832 246.207 121.903L245.965 121.927C245.886 121.939 245.808 121.955 245.731 121.976L245.266 122.085C244.98 122.17 244.707 122.262 244.426 122.349C244.145 122.436 243.862 122.526 243.576 122.632C243.292 122.738 243.015 122.861 242.746 122.998C242.214 123.27 241.714 123.595 241.257 123.967C240.356 124.705 239.587 125.571 238.979 126.534C238.389 127.503 237.721 128.397 237.115 129.342C236.509 130.287 235.976 131.26 235.451 132.249C235.191 132.733 234.931 133.234 234.694 133.736C234.569 133.978 234.452 134.24 234.335 134.491L234.26 134.676C234.217 134.75 234.194 134.833 234.192 134.918C234.192 135 234.218 135.08 234.267 135.148C234.316 135.216 234.386 135.268 234.468 135.298L234.504 135.233C234.453 135.201 234.413 135.156 234.39 135.102C234.367 135.049 234.361 134.991 234.374 134.935C234.432 134.822 234.503 134.714 234.585 134.615C234.749 134.373 234.913 134.157 235.069 133.922C235.388 133.46 235.693 132.99 235.994 132.517C236.592 131.573 237.175 130.618 237.697 129.635C238.22 128.652 238.662 127.622 239.208 126.656C239.764 125.703 240.559 124.89 241.527 124.287C242.002 123.99 242.506 123.734 243.032 123.524C243.292 123.42 243.552 123.323 243.812 123.238L244.218 123.119L244.642 123.008L245.489 122.785L245.885 122.707C245.949 122.692 246.014 122.68 246.08 122.671H246.28C246.807 122.629 247.338 122.688 247.84 122.845C248.874 123.166 249.734 123.847 250.24 124.747C250.499 125.204 250.657 125.705 250.702 126.22C250.745 126.754 250.683 127.292 250.52 127.806L250.604 127.823Z" fill="#FFAA39"/>
<path d="M238.347 154.654L240.406 155.223C241.368 155.49 242.392 155.485 243.351 155.21C244.31 154.935 245.159 154.402 245.794 153.678C251.126 147.598 264.722 131.551 268.414 121.927C268.736 121.125 268.857 120.265 268.767 119.413C268.677 118.56 268.378 117.738 267.894 117.01C267.564 116.489 267.089 116.061 266.518 115.773L238.347 154.654Z" fill="#396E8E"/>
<path d="M268.58 98.5215C268.58 98.5215 271.77 99.1488 271.77 101.091C271.77 102.615 269.916 108.78 269.121 111.352C269.006 111.724 268.768 112.053 268.442 112.292C268.115 112.532 267.716 112.67 267.301 112.687C266.792 112.725 266.281 112.654 265.806 112.478L268.58 98.5215Z" fill="#396E8E"/>
<path d="M169.811 170.246L188.513 162.807L227.141 177.825L204.142 181.323C194.988 182.716 186.756 187.323 181.137 194.197L169.811 170.246Z" fill="#54A4CC"/>
<path d="M133.557 194.187C133.557 194.187 140.543 171.099 167.357 167.739C167.357 167.739 181.176 180.334 181.137 194.187H133.557Z" fill="#396E8E"/>
<path d="M183.355 153.174C183.355 153.174 183.955 189.902 227.141 185.082C229.811 185.082 232.371 184.094 234.258 182.336C236.146 180.577 237.206 178.192 237.206 175.706V158.634L183.355 153.174Z" fill="#396E8E"/>
<path d="M135.018 169.241C135.018 169.241 134.867 171.481 137.571 171.76C140.275 172.038 184.499 162.475 184.499 162.475L187.546 167.981L191.36 160.426L183.368 153.174L135.018 169.241Z" fill="#396E8E"/>
<path d="M135.018 165.743L182.338 147.424C183.95 147.108 185.609 147.066 187.236 147.298L229.356 153.286C230.91 153.493 232.403 153.99 233.746 154.746C235.089 155.502 236.255 156.502 237.175 157.687C238.194 159.031 238.782 160.487 237.955 161.642C235.854 164.58 183.355 153.164 183.355 153.164L135.018 169.241C135.018 169.241 132.915 167.703 135.018 165.743Z" fill="#54A4CC"/>
<path d="M227.126 164.287L226.806 162.122C226.561 160.787 226.234 159.457 225.953 158.14C225.794 157.483 225.571 156.824 225.381 156.173C225.191 155.521 225.009 154.87 224.77 154.235L224.021 152.317C223.891 152.002 223.785 151.682 223.636 151.37L223.179 150.42C222.036 147.926 220.473 145.618 218.551 143.582C218.08 143.073 217.532 142.613 217.032 142.153L216.203 141.516C215.933 141.299 215.648 141.1 215.348 140.92C214.215 140.142 212.936 139.567 211.578 139.225C212.761 139.839 213.81 140.654 214.672 141.627C214.899 141.856 215.11 142.098 215.301 142.354L215.888 143.095C216.224 143.633 216.596 144.132 216.889 144.682C218.086 146.844 218.9 149.172 219.302 151.575L219.479 152.46C219.534 152.757 219.552 153.065 219.591 153.365L219.788 155.168C219.843 155.766 219.833 156.379 219.859 156.987C219.885 157.595 219.908 158.198 219.89 158.796C219.82 160.022 219.796 161.218 219.692 162.429L219.456 164.442C219.154 165.055 219.024 165.729 219.079 166.401C219.133 167.073 219.37 167.721 219.768 168.284C220.165 168.847 220.71 169.307 221.35 169.621C221.991 169.934 222.707 170.09 223.43 170.075C224.153 170.059 224.86 169.873 225.485 169.533C226.11 169.193 226.631 168.711 227.001 168.131C227.371 167.552 227.576 166.894 227.598 166.221C227.62 165.547 227.457 164.879 227.126 164.28V164.287Z" fill="#E3EAF3"/>
<path d="M223.332 168.252C224.609 168.252 225.644 167.288 225.644 166.099C225.644 164.91 224.609 163.946 223.332 163.946C222.056 163.946 221.021 164.91 221.021 166.099C221.021 167.288 222.056 168.252 223.332 168.252Z" fill="#396E8E"/>
<path d="M238.347 154.654L237.325 154.201C236.425 153.8 235.724 153.093 235.366 152.226C235.008 151.358 235.021 150.395 235.401 149.536C238.542 142.456 247.101 125.365 260.416 115.3C261.615 114.357 263.154 113.874 264.722 113.949C266.037 114.036 267.134 114.586 266.282 116.441C264.542 120.142 238.347 154.654 238.347 154.654Z" fill="#54A4CC"/>
<path d="M265.821 112.294L269.03 96.184C269.03 96.184 268.177 95.1401 266.578 97.0221C264.885 99.018 262.746 102.048 262.103 103.688C261.344 105.626 257.99 112.609 265.821 112.294Z" fill="#54A4CC"/>
<path d="M272.646 106.36C272.291 105.697 271.724 105.152 271.024 104.8C270.871 105.386 270.704 105.996 270.533 106.612C270.712 106.764 270.86 106.947 270.969 107.149C271.523 108.169 271.786 110.759 267.774 116.86C267.813 116.911 267.852 116.957 267.888 117.01C268.268 117.561 268.533 118.173 268.668 118.815C272.657 113.043 273.998 108.85 272.646 106.36Z" fill="#54A4CC"/>
<path d="M241.184 155.376C240.88 159.927 238.693 162.488 237.206 163.72V167.216L237.229 167.259C237.515 167.126 244.104 163.946 244.34 154.799C243.383 155.305 242.275 155.507 241.184 155.376Z" fill="#54A4CC"/>
<path d="M133.64 194.262H237.406C238.335 194.263 239.226 194.607 239.884 195.219C240.541 195.831 240.91 196.662 240.911 197.527V200.095H130.127V197.527C130.128 197.098 130.219 196.673 130.396 196.277C130.572 195.88 130.831 195.52 131.157 195.217C131.484 194.913 131.871 194.673 132.297 194.509C132.723 194.346 133.179 194.262 133.64 194.262Z" fill="#54A4CC"/>
<path d="M224.949 192.809H234.338C234.504 192.809 234.664 192.87 234.781 192.98C234.899 193.089 234.965 193.238 234.965 193.393V194.262H224.323V193.388C224.323 193.233 224.389 193.084 224.506 192.975C224.624 192.866 224.783 192.804 224.949 192.804V192.809Z" fill="#E3EAF3"/>
<path d="M229.224 190.304H230.064C230.774 190.304 231.455 190.567 231.957 191.035C232.46 191.503 232.742 192.138 232.742 192.799H226.546C226.546 192.138 226.828 191.503 227.33 191.035C227.832 190.567 228.514 190.304 229.224 190.304Z" fill="#54A4CC"/>
<path d="M223.689 146.341C223.287 146.342 222.891 146.253 222.534 146.081C222.178 145.909 221.871 145.659 221.64 145.353C218.216 140.826 203.198 140.627 194.532 141.567C193.88 141.624 193.229 141.441 192.72 141.057C192.211 140.673 191.884 140.118 191.809 139.511C191.734 138.905 191.917 138.295 192.32 137.813C192.722 137.331 193.311 137.015 193.96 136.933C196.56 136.655 219.497 134.433 225.732 142.669C225.996 143.018 226.153 143.428 226.184 143.854C226.215 144.28 226.12 144.706 225.909 145.086C225.699 145.465 225.38 145.783 224.988 146.005C224.597 146.228 224.147 146.345 223.689 146.346V146.341Z" fill="#54A4CC"/>
</svg>
